<?xml version="1.0" standalone="no"?>
<!DOCTYPE svg PUBLIC "-//W3C//DTD SVG 20010904//EN"
 "http://www.w3.org/TR/2001/REC-SVG-20010904/DTD/svg10.dtd">
<svg version="1.0" xmlns="http://www.w3.org/2000/svg"
 width="1256.000000pt" height="1256.000000pt" viewBox="0 0 1256.000000 1256.000000"
 preserveAspectRatio="xMidYMid meet">
<metadata>
Created by potrace 1.14, written by Peter Selinger 2001-2017
</metadata>
<g transform="translate(0.000000,1256.000000) scale(0.100000,-0.100000)"
fill="#000000" stroke="none">
<path d="M579 12133 c-1 -767 2 -1098 12 -1101 12 -5 12 -42 -1 -42 -14 0 -14
-797 0 -802 7 -2 13 -815 17 -2491 3 -1368 10 -2487 15 -2487 4 0 8 -688 8
-1529 0 -1385 -1 -1529 -16 -1535 -9 -3 -20 -6 -25 -6 -14 0 -11 157 4 164 10
5 10 7 0 12 -9 4 -13 39 -13 125 0 105 -2 120 -17 126 -10 4 -20 10 -23 14 -3
5 -51 11 -105 15 -55 4 -103 11 -106 16 -3 5 -30 11 -60 12 -29 2 -55 8 -57
15 -5 14 -32 15 -32 1 0 -5 -13 -10 -30 -10 -16 0 -30 5 -30 10 0 6 -7 10 -15
10 -8 0 -15 -4 -15 -10 0 -5 -7 -10 -15 -10 -8 0 -15 4 -15 9 0 5 -13 11 -30
13 -29 4 -30 4 -30 -37 l0 -42 177 -5 c121 -3 178 -9 181 -17 2 -6 16 -11 32
-11 16 0 35 -3 44 -6 20 -8 21 -34 1 -34 -8 0 -15 -4 -15 -9 0 -5 -20 -12 -45
-15 -25 -4 -45 -11 -45 -17 0 -14 -28 -11 -33 4 -4 9 -8 9 -15 -2 -9 -13 -102
-29 -102 -18 0 3 7 13 16 21 14 15 13 16 -10 16 -14 0 -26 5 -26 10 0 6 -33
10 -80 10 -47 0 -80 -4 -80 -10 0 -5 13 -10 30 -10 20 0 30 -5 30 -15 0 -10
-10 -15 -30 -15 l-30 0 0 -1225 0 -1225 6280 0 6280 0 0 640 c0 420 -3 640
-10 640 -5 0 -10 6 -10 14 0 11 -19 14 -82 15 -54 1 -84 5 -90 13 -6 10 -8 10
-8 1 0 -7 -12 -13 -27 -13 -23 0 -25 -2 -13 -11 11 -8 12 -12 2 -16 -6 -2 -12
-19 -13 -36 0 -18 -3 -26 -6 -19 -2 6 -18 12 -34 12 -18 0 -29 5 -29 14 0 8
-8 17 -17 19 -17 4 -17 5 0 6 9 0 17 6 17 11 0 6 7 10 15 10 8 0 15 -4 15 -10
0 -5 7 -10 15 -10 8 0 15 7 15 15 0 13 -24 15 -159 15 -118 0 -161 3 -164 13
-4 9 -6 9 -6 0 -1 -17 -58 -17 -65 0 -5 9 -7 9 -12 0 -7 -15 -44 -17 -44 -3 0
13 -47 13 -52 0 -5 -17 -118 -16 -130 1 -7 11 -11 11 -15 2 -2 -7 -20 -13 -38
-13 -19 0 -40 -7 -49 -15 -17 -17 -36 -20 -36 -5 0 6 -22 10 -49 10 -31 0 -55
6 -65 15 -17 17 -36 20 -36 5 0 -5 -6 -10 -14 -10 -24 0 -30 -22 -11 -36 10
-8 15 -17 11 -21 -4 -4 -10 -3 -14 3 -12 19 -42 25 -42 9 0 -8 -4 -15 -10 -15
-5 0 -10 4 -10 9 0 5 -13 12 -30 16 -16 4 -30 11 -30 16 0 5 -7 9 -15 9 -9 0
-15 -9 -15 -25 0 -16 -6 -25 -15 -25 -8 0 -15 5 -15 10 0 6 5 10 10 10 18 0
10 29 -10 35 -27 9 -60 -3 -60 -21 0 -8 5 -14 10 -14 6 0 10 -7 10 -15 0 -11
-7 -13 -28 -9 -19 4 -34 0 -45 -11 -16 -15 -17 -13 -17 39 0 31 -4 56 -10 56
-5 0 -10 -7 -10 -15 0 -10 -10 -15 -30 -15 -16 0 -30 -4 -30 -10 0 -5 -13 -10
-30 -10 -16 0 -30 5 -30 10 0 6 -7 10 -15 10 -7 0 -19 8 -25 18 -8 12 -13 13
-16 5 -3 -7 -14 -13 -25 -13 -14 0 -19 7 -19 25 0 28 -14 32 -36 10 -17 -17
-44 -9 -44 12 0 10 -7 14 -20 10 -11 -3 -27 1 -34 9 -20 19 -34 18 -41 -6 -8
-24 2 -60 16 -60 5 0 4 -6 -3 -13 -20 -22 -34 1 -42 66 l-7 57 59 0 c39 0 62
-4 65 -12 4 -10 6 -10 6 0 1 15 121 17 121 2 0 -14 28 -12 32 2 3 9 178 13
728 15 398 2 726 5 728 8 8 8 -39 45 -58 45 -11 0 -23 7 -26 15 -7 18 -31 20
-36 3 -6 -18 -276 -17 -287 1 -7 10 -9 11 -13 0 -5 -15 -131 -14 -136 2 -5 12
-32 12 -32 -1 0 -5 -13 -10 -30 -10 -16 0 -30 5 -30 10 0 6 -7 10 -15 10 -8 0
-15 -4 -15 -10 0 -5 -7 -10 -15 -10 -8 0 -15 5 -15 10 0 6 -7 10 -15 10 -8 0
-15 -4 -15 -10 0 -5 -13 -10 -30 -10 -16 0 -30 5 -30 10 0 6 -7 10 -15 10 -8
0 -15 -4 -15 -10 0 -5 -9 -10 -20 -10 -11 0 -20 7 -20 15 0 8 7 15 15 15 8 0
15 6 15 13 0 8 4 7 10 -3 8 -12 12 -12 18 -2 5 8 38 12 96 13 78 1 89 3 93 20
4 13 14 19 34 19 16 0 29 5 29 10 0 6 52 10 135 10 83 0 135 -4 135 -10 0 -6
35 -10 85 -10 50 0 85 4 85 10 0 17 28 11 33 -7 4 -17 5 -17 6 0 1 19 21 24
21 5 0 -9 4 -8 10 2 9 13 11 13 20 0 7 -11 10 -12 10 -2 0 16 24 42 39 42 6 0
11 -5 11 -11 0 -6 7 -4 15 5 8 8 15 19 15 25 0 6 7 11 15 11 8 0 15 -4 15 -10
0 -5 7 -10 15 -10 10 0 15 10 15 29 0 32 35 75 71 86 13 4 27 13 31 19 4 6 8
60 8 120 l0 108 -25 -23 c-13 -13 -25 -28 -25 -33 0 -4 -24 -32 -54 -61 -30
-30 -57 -63 -61 -74 -3 -11 -15 -23 -26 -26 -12 -4 -37 -24 -57 -44 -21 -21
-45 -40 -54 -44 -10 -3 -18 -11 -18 -17 0 -5 -13 -10 -30 -10 -25 0 -30 4 -30
25 0 14 -5 25 -11 25 -16 0 -39 -26 -39 -45 0 -10 -6 -15 -17 -13 -14 3 -18
13 -17 43 1 22 7 41 13 43 6 2 11 10 11 18 0 8 7 14 15 14 8 0 15 7 15 15 0 9
6 18 14 21 8 3 17 16 20 30 4 13 11 24 16 24 6 0 10 7 10 15 0 9 6 18 14 21 8
3 17 16 20 30 4 13 11 24 16 24 6 0 10 6 10 13 0 7 13 24 29 38 15 14 32 36
36 49 10 31 175 197 201 201 20 4 34 59 15 59 -6 0 -11 -4 -11 -10 0 -5 -11
-10 -25 -10 -14 0 -28 -7 -31 -15 -4 -8 -12 -15 -20 -15 -8 0 -14 -7 -14 -15
0 -8 -7 -15 -15 -15 -8 0 -15 -7 -15 -15 0 -8 -6 -15 -14 -15 -16 0 -106 -86
-106 -101 0 -14 -51 -59 -66 -59 -8 0 -14 -4 -14 -10 0 -5 -7 -10 -15 -10 -9
0 -18 -7 -21 -15 -3 -8 -15 -17 -27 -21 -12 -4 -32 -20 -46 -35 -14 -16 -31
-29 -38 -29 -7 0 -13 -4 -13 -9 0 -5 -11 -12 -24 -15 -14 -3 -26 -16 -30 -31
-4 -15 -16 -27 -30 -31 -14 -3 -27 -16 -30 -29 -3 -13 -16 -27 -28 -31 -11 -3
-31 -16 -42 -28 -12 -13 -29 -25 -38 -29 -10 -3 -18 -11 -18 -17 0 -5 -6 -10
-14 -10 -8 0 -28 -14 -45 -31 -22 -21 -45 -33 -74 -36 l-42 -6 43 41 c27 27
42 51 42 67 0 33 -7 32 -47 -10 -24 -24 -43 -35 -63 -35 -32 0 -42 23 -15 34
8 3 15 11 15 17 0 6 11 22 25 35 14 13 25 27 25 33 0 5 27 36 60 69 33 33 60
65 60 71 0 6 7 11 15 11 8 0 15 6 15 13 0 7 13 24 30 37 16 14 29 30 30 37 0
7 16 27 35 46 19 19 35 38 35 42 0 4 11 18 25 31 14 13 25 27 25 32 0 21 49
60 83 66 20 4 37 11 37 16 0 4 14 11 30 15 17 4 30 10 30 15 0 5 14 11 30 15
17 4 30 10 30 15 0 4 12 11 26 14 14 4 35 17 47 30 12 13 33 27 46 31 28 9 71
52 71 71 0 19 -26 18 -34 -1 -3 -8 -12 -15 -21 -15 -8 0 -15 -4 -15 -10 0 -5
-7 -10 -15 -10 -8 0 -23 -9 -32 -20 -10 -11 -23 -20 -30 -20 -7 0 -13 -4 -13
-10 0 -5 -11 -12 -25 -16 -14 -3 -25 -10 -25 -14 0 -5 -13 -11 -30 -15 -16 -4
-30 -10 -30 -15 0 -5 -20 -12 -45 -16 -25 -3 -45 -10 -45 -14 0 -4 -11 -11
-25 -14 -27 -7 -105 -80 -105 -100 -1 -6 -14 -22 -30 -36 -17 -13 -30 -28 -30
-33 0 -5 -14 -22 -30 -39 -17 -16 -30 -34 -30 -39 0 -5 -20 -29 -45 -52 -25
-24 -45 -49 -45 -55 0 -7 -4 -12 -10 -12 -13 0 -50 -32 -50 -43 0 -12 -52 -62
-72 -70 -10 -3 -18 -13 -18 -22 0 -9 -9 -15 -25 -15 -14 0 -25 -4 -25 -10 0
-5 -9 -10 -20 -10 -24 0 -26 22 -5 44 8 8 15 18 15 22 0 3 22 29 50 56 28 27
50 55 50 62 0 8 7 16 15 20 8 3 15 12 15 21 0 8 4 15 10 15 5 0 12 11 16 25 3
14 10 25 15 25 5 0 9 7 9 15 0 9 6 18 14 21 8 3 18 19 21 35 4 16 10 29 15 29
5 0 11 13 15 30 4 16 11 30 16 30 5 0 9 6 9 14 0 21 76 95 105 102 14 3 25 10
25 14 0 4 18 10 40 14 22 3 40 10 40 15 0 5 14 12 30 16 17 4 30 10 30 15 0 4
16 11 35 14 19 4 35 11 35 15 0 5 11 12 25 15 32 8 65 36 65 54 0 10 -7 12
-27 7 -16 -3 -29 -11 -31 -16 -2 -5 -10 -9 -17 -9 -8 0 -18 -6 -22 -13 -4 -8
-26 -17 -47 -20 -22 -4 -42 -11 -45 -16 -4 -5 -19 -13 -34 -16 -15 -4 -27 -11
-27 -15 0 -4 -18 -10 -40 -14 -22 -3 -40 -11 -40 -16 0 -6 -7 -10 -15 -10 -9
0 -18 -7 -21 -15 -3 -8 -15 -17 -26 -21 -26 -8 -54 -36 -63 -63 -3 -12 -10
-21 -15 -21 -5 0 -11 -13 -15 -29 -3 -16 -13 -32 -21 -35 -8 -3 -14 -12 -14
-21 0 -8 -4 -15 -9 -15 -5 0 -12 -12 -16 -27 -3 -15 -17 -37 -30 -48 -12 -12
-26 -32 -30 -43 -3 -12 -11 -22 -16 -22 -5 0 -9 -6 -9 -13 0 -17 -34 -45 -65
-53 -18 -4 -25 -2 -25 9 0 8 7 17 15 21 8 3 15 12 15 21 0 8 5 15 10 15 6 0
10 5 10 10 0 18 -22 11 -45 -14 -12 -13 -33 -27 -46 -31 -21 -7 -20 -5 9 24
18 18 32 37 32 42 0 6 11 20 24 32 14 13 28 36 32 53 4 16 17 38 29 50 13 11
26 31 30 42 3 12 10 22 15 22 4 0 11 12 14 26 4 14 18 36 31 48 14 13 25 27
25 32 0 5 9 17 20 27 11 9 20 24 20 32 0 8 11 17 25 21 14 3 25 10 25 14 0 4
19 10 41 13 23 3 45 10 48 15 3 5 39 11 79 14 40 2 76 9 80 15 4 6 20 15 35
18 15 4 27 11 27 16 0 5 18 12 40 15 22 4 40 10 40 15 0 5 7 9 15 9 9 0 18 6
21 14 3 8 19 18 35 21 16 4 29 10 29 15 0 5 14 11 30 15 17 4 30 10 30 15 0 4
12 11 26 14 15 4 33 14 41 21 8 8 23 15 34 15 10 0 19 4 19 10 0 5 11 12 25
16 14 3 25 10 25 14 0 4 11 11 26 14 l25 7 -5 632 c-5 637 -10 777 -27 777 -5
0 -9 7 -9 15 0 8 -7 15 -15 15 -12 0 -15 -13 -15 -60 0 -33 4 -60 10 -60 6 0
10 -32 10 -75 0 -58 4 -77 15 -81 17 -7 21 -34 5 -34 -6 0 -13 7 -16 15 -4 8
-12 15 -20 15 -8 0 -14 9 -14 20 0 11 -4 20 -10 20 -6 0 -10 30 -10 70 0 49 4
70 13 70 8 0 8 3 -2 9 -7 5 -16 32 -19 60 -5 51 -15 65 -26 35 -8 -20 -8 -218
0 -267 6 -30 11 -37 30 -37 13 0 27 -6 31 -14 4 -7 14 -15 22 -18 8 -2 -27 -4
-78 -3 -51 1 -88 -1 -83 -4 10 -6 15 -38 13 -74 -2 -27 -26 -14 -27 14 -3 62
-5 69 -19 69 -8 0 -15 7 -15 15 0 21 -20 19 -21 -2 -1 -10 -1 -48 1 -85 3 -95
-3 -108 -50 -108 -44 0 -50 9 -50 85 0 51 -9 65 -41 65 -5 0 -9 -36 -9 -80 0
-64 -3 -80 -15 -80 -8 0 -16 10 -16 23 -1 12 -3 31 -4 42 -1 11 -2 37 -3 58
-1 25 -7 37 -17 37 -12 0 -15 -14 -15 -65 l0 -65 -41 0 c-22 0 -47 -6 -55 -14
-17 -17 -19 -73 -3 -78 6 -2 14 -27 16 -54 5 -46 3 -52 -16 -57 -18 -4 -21 -1
-21 29 0 19 -4 34 -10 34 -6 0 -10 45 -10 115 0 85 3 115 13 115 8 0 7 3 -3
10 -13 8 -15 91 -16 635 -1 526 1 625 12 625 11 0 14 -25 14 -125 0 -77 -4
-125 -10 -125 -5 0 -10 -18 -10 -40 0 -22 4 -40 9 -40 4 0 11 -19 14 -42 3
-24 11 -44 16 -46 16 -5 13 -29 -4 -36 -8 -3 -15 -17 -15 -31 0 -19 5 -25 22
-25 21 0 21 -2 15 -107 -3 -61 -11 -109 -17 -111 -15 -5 -13 -62 3 -62 33 1
37 16 38 146 0 118 11 181 26 147 2 -7 11 -13 19 -13 11 0 14 -17 14 -74 0
-41 -4 -76 -10 -78 -5 -1 -11 -30 -12 -63 -3 -50 0 -60 15 -63 13 -3 17 3 17
27 0 17 5 31 10 31 6 0 10 47 10 120 0 114 1 120 20 120 20 0 21 -5 19 -141 0
-77 2 -143 5 -146 11 -12 19 7 24 59 3 29 8 55 12 58 14 9 17 200 3 200 -6 0
-15 15 -18 32 -4 18 -13 36 -19 40 -7 5 -11 62 -11 175 0 207 1 213 30 213 31
0 36 -31 31 -198 -3 -75 -2 -122 0 -104 3 17 9 32 14 32 5 0 11 60 12 133 l3
132 160 1 c88 1 166 2 173 3 9 1 12 62 11 274 -1 149 -3 264 -6 255 -4 -16 -6
-16 -19 -4 -11 11 -14 49 -14 174 0 88 4 162 9 164 4 2 10 73 13 158 3 85 3
140 1 123 -3 -21 -10 -33 -20 -33 -13 0 -15 13 -11 80 3 78 16 108 41 93 5 -3
7 3 5 13 -2 13 -13 20 -36 22 -19 2 -32 9 -32 17 0 7 -13 27 -30 43 -32 32
-38 51 -17 53 6 1 19 2 27 3 8 2 32 3 53 4 l37 2 0 1140 0 1140 -39 0 c-22 0
-42 6 -45 13 -5 10 -7 10 -12 0 -4 -9 -31 -13 -84 -13 -53 0 -80 4 -84 13 -5
10 -7 10 -12 0 -4 -9 -28 -13 -69 -13 -41 0 -65 4 -69 13 -5 9 -7 9 -12 0 -8
-18 -220 -18 -228 0 -5 9 -7 9 -12 0 -7 -15 -64 -18 -64 -3 0 6 -7 10 -15 10
-8 0 -15 -4 -15 -10 0 -6 -37 -10 -90 -10 -89 0 -90 0 -90 25 0 13 -8 28 -17
34 -10 5 -15 12 -11 16 10 11 343 6 346 -5 5 -13 62 -13 62 0 0 5 -11 12 -24
16 -14 3 -27 12 -30 20 -3 8 -12 14 -21 14 -8 0 -15 4 -15 9 0 5 -18 11 -39
15 -31 5 -40 11 -45 31 -4 14 -13 25 -20 25 -8 0 -22 8 -32 17 -12 12 -38 19
-86 21 -49 3 -68 8 -68 18 0 9 -11 14 -30 14 -28 0 -30 -3 -30 -35 0 -19 5
-35 10 -35 6 0 10 -12 10 -26 0 -23 1 -24 16 -10 20 21 40 20 54 -1 8 -13 13
-14 16 -5 7 14 64 17 64 2 0 -5 16 -10 35 -10 26 0 33 -3 29 -15 -7 -17 -34
-21 -34 -5 0 6 -27 10 -60 10 -47 0 -60 3 -60 15 0 8 -4 15 -10 15 -5 0 -10
-11 -10 -25 0 -15 -6 -25 -14 -25 -7 0 -16 -13 -19 -29 -11 -52 -35 -71 -92
-71 -83 0 -95 7 -95 51 0 22 -4 39 -9 39 -12 0 -24 74 -16 100 6 20 35 29 35
10 0 -5 5 -10 10 -10 6 0 10 7 10 15 0 9 -9 15 -25 15 -14 0 -25 4 -25 9 0 5
-9 11 -20 14 -11 3 -20 12 -20 20 0 24 57 76 77 71 17 -5 18 76 17 1708 l-1
1713 -27 3 -26 3 0 -90 c0 -98 -5 -121 -26 -121 -11 0 -14 22 -14 105 l0 105
-55 0 -55 0 0 -500 c0 -327 3 -500 10 -500 6 0 10 -32 10 -75 0 -43 -4 -75
-10 -75 -7 0 -10 -265 -10 -775 0 -510 3 -775 10 -775 6 0 10 -98 10 -275 0
-177 -4 -275 -10 -275 -6 0 -10 -30 -10 -70 0 -40 4 -70 10 -70 6 0 10 -16 10
-35 0 -19 -4 -35 -10 -35 -7 0 -10 -550 -10 -1631 0 -1400 2 -1632 14 -1645
17 -16 46 -19 46 -4 0 6 18 10 40 10 22 0 40 -4 40 -10 0 -11 -11 -13 -52 -10
-20 1 -28 -3 -28 -14 0 -11 -9 -16 -30 -16 -17 0 -30 5 -30 13 0 8 -3 9 -8 1
-4 -6 -25 -14 -47 -17 -22 -4 -41 -11 -43 -17 -2 -5 -10 -10 -17 -10 -8 0 -21
-7 -29 -16 -14 -13 -16 -50 -16 -245 0 -217 1 -230 20 -246 11 -10 20 -28 20
-40 0 -13 5 -23 10 -23 6 0 10 -7 10 -15 0 -8 -4 -15 -9 -15 -5 0 -10 -295
-12 -702 -3 -550 -7 -702 -16 -706 -7 -2 -13 -9 -13 -16 0 -6 -13 -23 -30 -36
-29 -25 -29 -27 -30 -122 0 -54 4 -98 9 -98 5 0 11 -22 15 -50 4 -28 10 -50
15 -50 5 0 11 -18 15 -40 3 -22 11 -40 16 -40 12 0 13 -27 1 -32 -4 -2 -10
-253 -12 -558 l-4 -555 30 3 c17 2 32 8 33 13 5 12 32 12 32 -1 0 -5 7 -10 15
-10 8 0 15 4 15 9 0 6 19 11 43 13 l42 3 3 48 c2 26 7 47 13 47 5 0 9 7 9 15
0 8 -4 15 -10 15 -14 0 -13 27 1 32 15 5 13 671 -1 676 -13 5 -13 62 0 62 6 0
10 -4 10 -10 0 -5 9 -10 20 -10 11 0 20 7 20 15 0 23 43 18 65 -7 17 -20 20
-21 23 -6 4 19 30 32 29 15 0 -7 1 -54 1 -104 2 -75 5 -93 17 -93 11 0 15 12
15 45 0 25 5 45 10 45 6 0 10 27 10 60 0 47 3 60 15 60 17 0 17 -4 15 -225 -1
-72 -5 -131 -10 -133 -15 -6 -12 -89 3 -95 32 -12 37 9 40 183 2 164 3 161 4
-50 1 -124 -1 -218 -4 -210 -13 31 -53 55 -53 31 0 -5 -3 -16 -6 -24 -3 -9 3
-16 15 -20 12 -3 21 -12 21 -21 0 -9 5 -16 10 -16 6 0 10 -48 10 -125 0 -123
-1 -126 -26 -150 -15 -14 -33 -25 -40 -25 -8 0 -14 -11 -14 -24 0 -42 -11 -56
-44 -57 -17 -1 -23 -3 -13 -6 20 -5 24 -53 3 -53 -7 0 -26 -12 -42 -26 -38
-36 -38 -83 0 -119 35 -32 46 -93 22 -117 -9 -9 -16 -21 -16 -27 0 -6 -7 -11
-15 -11 -10 0 -15 -10 -15 -30 0 -16 5 -30 10 -30 6 0 10 -13 10 -30 0 -20 5
-30 15 -30 9 0 18 -7 21 -15 4 -10 21 -15 53 -15 54 0 91 -9 91 -21 0 -5 -20
-9 -45 -9 -33 0 -45 -4 -45 -15 0 -8 -7 -15 -15 -15 -8 0 -15 5 -15 10 0 6
-13 10 -30 10 -28 0 -30 -2 -30 -39 0 -26 -5 -41 -16 -45 -33 -13 -44 -6 -44
24 0 21 5 30 16 30 14 0 14 2 0 15 -18 18 -33 19 -39 3 -4 -10 -6 -10 -6 0 -1
14 -31 17 -31 2 0 -13 -27 -13 -32 0 -2 6 -44 12 -97 14 -60 3 -96 8 -101 16
-5 8 -9 8 -11 2 -7 -19 -55 -25 -72 -8 -19 19 -37 21 -37 4 0 -10 -2 -10 -8
-1 -13 20 -58 26 -75 9 -20 -21 -35 -20 -39 1 -3 16 -4 16 -20 0 -20 -20 -104
-24 -111 -4 -4 9 -8 8 -16 -3 -8 -11 -11 -11 -11 -2 0 7 -9 23 -21 35 -19 21
-21 21 -33 5 -14 -19 -36 -24 -36 -9 0 4 -16 11 -36 14 -20 3 -42 14 -48 23
-9 11 -19 14 -34 10 -18 -6 -22 -15 -22 -47 0 -27 -4 -39 -14 -39 -11 0 -16
14 -18 47 -3 44 -4 46 -20 30 -18 -18 -48 -23 -48 -8 0 19 -31 20 -47 1 -22
-25 -29 -25 -36 1 -4 15 -13 20 -34 19 -45 -3 -53 -1 -53 15 0 8 -9 15 -20 15
-11 0 -20 -7 -20 -15 0 -9 -6 -22 -12 -29 -11 -11 -17 -9 -35 10 -22 24 -63
33 -63 13 0 -6 -7 -3 -16 6 -11 11 -26 14 -50 9 -27 -5 -34 -3 -34 10 0 9 -7
16 -15 16 -8 0 -15 -4 -15 -10 0 -16 -47 -12 -54 5 -3 8 -17 15 -31 15 -16 0
-25 6 -25 15 0 9 9 15 25 15 14 0 25 5 25 10 0 6 38 10 95 10 78 0 95 3 95 15
0 11 -13 15 -52 16 -29 0 -46 3 -38 6 8 3 19 12 23 19 4 8 19 14 32 14 14 0
25 5 25 10 0 6 9 10 19 10 11 0 26 7 34 15 8 7 26 17 41 21 14 3 26 10 26 14
0 4 19 10 42 13 24 3 44 10 46 16 2 6 19 13 38 17 19 3 34 10 34 14 0 5 14 11
30 15 17 4 30 10 30 15 0 4 11 11 25 14 14 4 25 11 25 16 0 6 6 10 13 10 24 0
47 39 47 80 0 26 5 43 14 46 8 3 17 16 20 30 4 13 11 24 16 24 6 0 10 7 10 15
0 9 6 18 14 21 7 3 16 23 20 45 3 21 11 39 16 39 6 0 10 7 10 15 0 9 6 18 14
21 9 3 17 27 22 60 3 30 10 54 14 54 4 0 10 19 13 41 3 23 11 45 17 49 16 10
19 212 3 217 -7 3 -15 31 -19 64 -4 32 -10 59 -14 59 -4 0 -10 25 -13 57 -3
31 -10 59 -15 62 -5 3 -13 39 -17 79 -4 39 -11 72 -16 72 -13 0 -11 78 2 82 6
2 10 42 11 102 0 81 -3 101 -16 108 -9 5 -16 16 -16 23 0 8 -4 15 -9 15 -5 0
-12 13 -16 30 -4 16 -11 30 -16 30 -5 0 -11 11 -15 25 -3 14 -10 25 -14 25 -5
0 -11 14 -15 30 -4 17 -11 30 -16 30 -5 0 -9 9 -9 19 0 11 -7 26 -15 34 -8 8
-17 33 -21 56 -4 23 -10 41 -15 41 -4 0 -11 16 -15 35 -3 19 -10 35 -14 35 -4
0 -10 18 -14 40 -3 22 -10 40 -15 40 -5 0 -12 13 -16 30 -4 16 -10 30 -15 30
-4 0 -11 19 -15 43 -4 23 -12 45 -17 48 -5 3 -12 25 -15 48 -3 22 -9 41 -14
41 -4 0 -11 16 -15 35 -3 19 -10 35 -14 35 -5 0 -11 14 -15 30 -4 17 -10 30
-14 30 -5 0 -11 19 -14 41 -3 23 -10 45 -15 48 -5 3 -12 23 -16 43 -4 21 -11
38 -15 38 -5 0 -11 23 -15 50 -4 27 -10 50 -15 50 -5 0 -11 19 -14 41 -3 23
-11 46 -19 50 -19 12 -19 246 0 258 18 11 22 323 5 328 -7 3 -15 27 -19 54 -4
27 -10 49 -14 49 -5 0 -11 13 -15 30 -4 16 -11 30 -16 30 -5 0 -11 11 -15 25
-3 14 -10 25 -15 25 -5 0 -9 1463 -9 3515 l0 3515 -485 0 -485 0 0 -210 c0
-133 -4 -210 -10 -210 -6 0 -10 -27 -10 -60 0 -33 4 -60 10 -60 6 0 10 -33 10
-80 0 -47 -4 -80 -10 -80 -6 0 -10 -90 -10 -250 0 -160 4 -250 10 -250 7 0 10
-627 10 -1860 l0 -1860 -25 0 c-14 0 -25 4 -25 9 0 5 -13 12 -30 16 -16 4 -30
11 -30 16 0 5 -9 9 -19 9 -11 0 -26 7 -35 15 -8 8 -29 18 -45 21 -17 4 -31 10
-31 14 0 4 -18 10 -40 14 -22 3 -40 11 -40 16 0 6 -5 10 -11 10 -7 0 -28 17
-48 37 -36 37 -36 38 -39 135 l-4 98 -42 0 c-70 0 -92 28 -101 130 -4 49 -13
90 -21 98 -8 7 -14 22 -14 33 0 10 -4 19 -10 19 -5 0 -10 6 -10 14 0 18 -87
106 -105 106 -7 0 -15 7 -19 15 -3 8 -12 15 -21 15 -8 0 -15 4 -15 9 0 5 -11
12 -25 15 -14 4 -25 10 -25 15 0 5 -13 12 -30 16 -16 4 -30 11 -30 15 0 5 -23
12 -50 16 -27 4 -50 10 -50 14 0 4 -11 11 -25 14 -16 4 -27 16 -31 33 -9 35 5
466 15 473 5 3 11 140 15 305 4 166 12 301 17 303 12 5 12 32 -1 32 -5 0 -10
18 -10 40 0 22 5 40 10 40 6 0 10 28 10 65 0 37 -4 65 -10 65 -5 0 -10 7 -10
15 0 8 5 15 10 15 6 0 10 7 10 15 0 8 -4 15 -10 15 -5 0 -10 11 -10 25 0 14 6
25 13 25 8 0 9 3 1 8 -7 4 -14 65 -18 152 -4 79 -11 147 -15 150 -4 3 -11 50
-14 104 -4 59 -12 103 -18 107 -7 4 -14 32 -17 63 -2 31 -8 56 -12 56 -4 0
-10 30 -13 67 -4 37 -10 69 -15 72 -5 3 -12 24 -15 45 -4 22 -10 42 -15 45 -5
3 -12 27 -16 54 -4 26 -11 47 -15 47 -5 0 -11 18 -15 40 -3 22 -10 40 -15 40
-5 0 -12 13 -16 29 -3 16 -13 32 -21 35 -8 3 -14 12 -14 21 0 8 -4 15 -9 15
-5 0 -12 14 -16 30 -4 17 -10 30 -15 30 -4 0 -11 12 -15 27 -3 15 -17 37 -30
49 -13 12 -27 34 -31 48 -3 14 -10 26 -15 26 -5 0 -9 7 -9 15 0 8 -9 23 -20
32 -11 10 -20 21 -20 26 0 13 -126 137 -139 137 -6 0 -11 4 -11 10 0 13 -32
50 -43 50 -5 0 -26 18 -47 39 -21 21 -49 42 -62 46 -12 4 -33 18 -45 31 -12
13 -33 26 -47 30 -14 3 -26 10 -26 14 0 4 -20 11 -45 14 -25 4 -45 11 -45 16
0 5 -17 12 -37 16 -21 4 -41 11 -44 16 -3 5 -51 11 -107 15 -56 3 -102 9 -102
13 0 4 -174 10 -387 14 -224 4 -389 11 -391 17 -5 11 -152 12 -152 0 0 -4 -28
-11 -61 -14 -34 -3 -65 -10 -68 -15 -3 -5 -37 -12 -76 -16 -38 -4 -72 -11 -75
-16 -3 -4 -18 -12 -33 -15 -15 -4 -27 -11 -27 -16 0 -5 -18 -12 -40 -15 -22
-4 -40 -10 -40 -14 0 -4 -12 -11 -26 -14 -14 -4 -35 -17 -47 -30 -12 -12 -30
-25 -39 -29 -10 -3 -18 -11 -18 -16 0 -5 -9 -13 -21 -16 -22 -7 -129 -111
-129 -126 0 -5 -27 -35 -60 -67 -33 -33 -60 -62 -60 -67 0 -4 -11 -18 -24 -30
-13 -12 -27 -33 -31 -46 -4 -13 -18 -33 -30 -45 -13 -11 -26 -31 -30 -42 -3
-12 -11 -22 -16 -22 -5 0 -9 -13 -9 -30 0 -19 -5 -30 -14 -30 -8 0 -17 -13
-21 -30 -4 -16 -10 -30 -15 -30 -5 0 -11 -13 -15 -30 -4 -16 -11 -30 -15 -30
-5 0 -12 -16 -16 -35 -3 -19 -10 -35 -14 -35 -4 0 -10 -18 -14 -39 -3 -22 -11
-41 -17 -43 -5 -2 -13 -22 -16 -46 -3 -23 -9 -42 -13 -42 -4 0 -11 -26 -15
-57 -4 -32 -11 -61 -17 -64 -5 -3 -12 -25 -15 -48 -3 -22 -9 -41 -13 -41 -5 0
-11 -43 -15 -95 -4 -52 -11 -95 -15 -95 -4 0 -10 -30 -12 -67 -2 -39 -9 -68
-16 -71 -16 -5 -15 -29 1 -34 9 -4 13 -90 15 -374 2 -203 7 -371 11 -374 5 -3
11 -220 15 -483 6 -474 6 -479 -14 -484 -11 -3 -20 -9 -20 -13 0 -5 -13 -11
-30 -15 -16 -4 -30 -10 -30 -15 0 -4 -18 -10 -40 -14 -22 -3 -40 -10 -40 -15
0 -5 -13 -12 -30 -16 -16 -4 -30 -11 -30 -16 0 -5 -7 -9 -15 -9 -9 0 -18 -6
-21 -14 -3 -8 -25 -17 -50 -21 -24 -3 -44 -10 -44 -16 0 -5 -13 -9 -29 -9 -16
0 -36 -7 -44 -15 -8 -7 -26 -17 -41 -21 -14 -3 -26 -10 -26 -14 0 -4 -11 -11
-25 -14 -31 -8 -123 -100 -131 -131 -3 -14 -10 -25 -14 -25 -4 0 -10 -25 -12
-56 -3 -31 -10 -59 -16 -63 -6 -3 -14 -19 -17 -34 -4 -15 -11 -27 -15 -27 -4
0 -10 -15 -13 -34 -7 -45 -64 -101 -111 -110 -20 -4 -36 -11 -36 -16 0 -5 -16
-12 -35 -16 -19 -3 -35 -10 -35 -15 0 -5 -18 -12 -40 -15 -22 -4 -40 -10 -40
-15 0 -5 -7 -9 -15 -9 -9 0 -18 -6 -21 -14 -3 -8 -19 -18 -35 -21 -16 -4 -29
-11 -29 -16 0 -5 -11 -11 -25 -15 -14 -3 -25 -10 -25 -14 0 -4 -12 -11 -26
-14 -14 -4 -36 -18 -48 -31 -13 -14 -27 -25 -31 -25 -11 0 -295 -287 -295
-299 0 -6 -4 -11 -10 -11 -5 0 -13 -18 -16 -40 -4 -22 -10 -40 -15 -40 -4 0
-11 -20 -14 -44 -4 -25 -13 -47 -21 -50 -8 -3 -14 -12 -14 -21 0 -8 -4 -15
-10 -15 -5 0 -12 -11 -16 -25 -3 -14 -10 -25 -15 -25 -4 0 -11 -16 -15 -35 -3
-19 -10 -35 -15 -35 -4 0 -11 -17 -15 -37 -4 -21 -11 -41 -17 -44 -5 -4 -12
-31 -15 -60 -3 -30 -11 -58 -18 -62 -8 -4 -14 -15 -14 -22 0 -8 -4 -15 -10
-15 -5 0 -10 -13 -10 -29 0 -16 -7 -36 -15 -44 -8 -8 -17 -33 -21 -56 -4 -23
-10 -41 -14 -41 -5 0 -11 -14 -15 -30 -4 -17 -10 -30 -14 -30 -5 0 -11 -28
-14 -62 -3 -34 -10 -64 -16 -66 -6 -2 -14 -21 -17 -43 -4 -21 -10 -39 -14 -39
-5 0 -11 -34 -15 -75 -4 -41 -11 -75 -16 -75 -5 0 -9 -7 -9 -15 0 -7 -6 -18
-13 -22 -8 -4 -17 -26 -20 -47 -4 -22 -10 -42 -15 -45 -5 -3 -13 -17 -17 -31
-4 -13 -21 -37 -36 -53 -16 -16 -29 -34 -29 -42 0 -7 -11 -16 -25 -19 -14 -4
-25 -13 -25 -21 0 -7 -22 -36 -50 -63 -28 -27 -50 -54 -50 -60 0 -6 -6 -12
-13 -14 -8 -3 -13 -41 -15 -131 -2 -70 -7 -127 -11 -127 -5 0 -10 -93 -14
-206 -3 -115 -9 -209 -15 -213 -5 -3 -13 -17 -17 -30 -4 -13 -18 -34 -31 -46
-13 -12 -24 -28 -24 -34 0 -6 -6 -14 -14 -17 -8 -3 -17 -16 -20 -30 -4 -13
-10 -24 -15 -24 -5 0 -12 -13 -16 -29 -3 -16 -13 -32 -21 -35 -8 -3 -14 -16
-14 -30 0 -13 -7 -26 -15 -30 -8 -3 -15 -17 -15 -31 0 -14 -4 -25 -9 -25 -5 0
-12 -14 -16 -30 -4 -16 -10 -30 -14 -30 -5 0 -11 -55 -14 -121 -4 -85 -9 -125
-19 -131 -10 -7 -10 -11 0 -15 15 -6 16 -70 1 -75 -6 -2 -14 -27 -17 -56 -2
-29 -8 -52 -12 -52 -4 0 -11 -15 -14 -34 -4 -19 -12 -37 -19 -40 -9 -3 -8 -7
3 -15 8 -6 10 -11 4 -11 -6 0 -14 -18 -18 -40 -3 -22 -10 -40 -15 -40 -5 0
-13 -29 -16 -65 -4 -36 -11 -65 -15 -65 -4 0 -10 -18 -14 -40 -3 -22 -10 -40
-15 -40 -5 0 -12 -34 -16 -75 -4 -41 -11 -75 -15 -75 -4 0 -11 -43 -15 -95 -4
-52 -11 -95 -15 -95 -5 0 -12 -17 -16 -37 -4 -21 -11 -41 -16 -44 -4 -3 -11
-50 -15 -105 -3 -54 -11 -102 -16 -106 -6 -3 -12 -66 -15 -140 -3 -82 -9 -136
-16 -140 -6 -4 -13 -46 -15 -100 -2 -51 -7 -96 -13 -99 -12 -8 -13 -270 0
-278 5 -3 12 -22 16 -43 4 -20 13 -39 21 -42 8 -3 15 -11 15 -17 0 -6 11 -22
25 -35 14 -13 25 -28 25 -33 0 -6 16 -25 35 -44 19 -19 35 -39 35 -46 0 -8
-129 -11 -497 -10 -274 0 -492 3 -485 6 9 4 12 134 12 603 0 339 -4 600 -9
602 -5 2 -12 1127 -16 2653 -4 1458 -11 2652 -15 2655 -5 3 -11 853 -14 1890
-3 1037 -5 1913 -6 1948 l0 62 -85 0 -85 0 -1 -427z m10800 -905 c-1 -1214 -4
-1398 -25 -1398 -9 0 -14 -11 -14 -30 0 -16 -4 -30 -10 -30 -13 0 -13 177 0
182 16 5 18 1400 3 1405 -16 6 -18 230 -3 235 7 2 11 133 13 376 2 348 3 372
20 372 16 0 17 -55 16 -1112z m-5519 -967 c0 -5 59 -11 130 -12 86 -3 133 -8
138 -16 4 -6 20 -15 35 -18 15 -4 27 -11 27 -15 0 -5 14 -11 30 -15 17 -4 30
-11 30 -16 0 -5 7 -9 15 -9 8 0 15 5 15 10 0 6 11 10 25 10 14 0 28 6 31 14 4
10 36 16 117 21 62 4 114 11 117 16 3 4 58 11 123 15 64 4 117 11 117 15 0 12
28 11 32 -1 2 -5 36 -12 76 -15 66 -4 76 -8 107 -38 19 -19 35 -39 35 -46 0
-6 4 -11 9 -11 5 0 12 -13 16 -30 4 -16 11 -30 16 -30 5 0 9 -6 9 -14 0 -8 6
-21 13 -28 8 -7 17 -26 21 -43 4 -16 18 -39 31 -51 16 -15 26 -38 31 -72 4
-29 12 -53 20 -56 9 -3 14 -21 14 -46 0 -22 5 -40 10 -40 6 0 10 -16 10 -35
l0 -35 -284 0 c-193 0 -285 -3 -288 -11 -2 -6 -50 -11 -126 -12 -106 -2 -125
-4 -133 -19 -6 -10 -17 -18 -24 -18 -8 0 -15 -4 -15 -10 0 -5 -7 -10 -15 -10
-8 0 -15 -6 -15 -14 0 -8 -7 -16 -15 -20 -8 -3 -15 -17 -15 -31 0 -14 -4 -25
-10 -25 -5 0 -10 -16 -10 -35 0 -33 -2 -35 -34 -35 -19 0 -37 -6 -40 -12 -5
-10 -7 -10 -12 0 -3 6 -14 12 -25 12 -17 0 -19 8 -19 60 0 33 -4 60 -10 60 -5
0 -10 7 -10 15 0 9 -7 18 -15 21 -8 4 -15 12 -15 20 0 8 -6 14 -14 14 -8 0
-16 6 -18 13 -3 8 -40 13 -126 15 -67 2 -122 8 -122 13 0 5 -129 9 -310 9
-288 0 -310 1 -311 18 -2 27 2 47 11 52 5 3 12 18 15 33 4 15 11 27 15 27 4 0
10 18 14 40 3 22 11 40 16 40 6 0 10 7 10 15 0 9 6 18 14 21 8 3 18 19 21 35
4 16 10 29 15 29 4 0 11 11 14 25 4 14 11 25 16 25 6 0 10 7 10 15 0 9 6 18
14 21 8 3 17 16 20 30 4 13 11 24 16 24 6 0 10 6 10 13 0 7 9 20 20 30 11 9
20 23 20 31 0 8 7 16 15 20 8 3 15 10 15 16 0 34 24 39 178 40 83 0 152 -4
152 -9z m5517 -463 c-3 -8 -6 -5 -6 6 -1 11 2 17 5 13 3 -3 4 -12 1 -19z m-32
-138 c-5 -67 -3 -80 10 -80 8 0 15 7 15 15 0 8 -6 15 -12 15 -10 0 -10 2 -1 8
6 4 13 28 16 52 2 25 4 -66 4 -202 -1 -187 -4 -248 -13 -248 -12 0 -24 31 -24
66 0 12 -6 24 -14 27 -11 4 -13 42 -11 199 3 239 2 228 20 228 13 0 14 -13 10
-80z m-4405 -149 c0 -6 79 -11 185 -13 204 -3 205 -4 205 -65 0 -18 5 -33 10
-33 6 0 10 -25 10 -55 0 -30 -4 -55 -10 -55 -5 0 -10 -22 -10 -49 0 -68 -10
-111 -26 -111 -8 0 -14 -4 -14 -9 0 -5 -10 -13 -22 -17 -13 -4 -26 -11 -30
-17 -3 -6 -34 -13 -67 -15 -34 -2 -61 -8 -61 -13 0 -5 -108 -9 -240 -9 -153 0
-240 4 -240 10 0 6 -26 10 -57 10 -32 0 -63 4 -69 8 -6 4 -15 32 -19 62 -4 30
-12 58 -18 62 -16 10 -15 200 1 205 6 3 12 11 12 19 0 8 7 14 15 14 8 0 15 4
15 9 0 5 19 12 43 16 23 4 44 11 47 16 3 4 72 11 153 15 81 4 147 11 147 15 0
5 9 9 20 9 11 0 20 -4 20 -9z m-1091 -29 c4 -6 40 -12 81 -14 74 -3 75 -4 78
-30 2 -16 8 -28 13 -28 5 0 9 -52 9 -120 0 -66 -4 -120 -9 -120 -4 0 -11 -18
-14 -41 -3 -22 -8 -43 -11 -47 -3 -3 -31 -7 -61 -10 -30 -2 -55 -8 -55 -13 0
-12 -147 -12 -152 0 -1 5 -108 12 -237 15 -133 3 -237 9 -240 15 -4 5 -19 13
-34 16 -15 4 -27 13 -27 21 0 8 -4 14 -10 14 -5 0 -10 18 -10 40 0 27 -5 43
-15 46 -12 5 -15 26 -15 105 0 54 4 99 9 99 5 0 11 13 14 30 l6 29 133 4 c255
6 540 0 547 -11z m431 -241 c0 -5 11 -12 25 -15 14 -4 25 -11 25 -16 0 -6 9
-10 20 -10 11 0 20 -6 20 -14 0 -8 7 -16 15 -20 11 -4 14 -13 9 -31 -4 -18 -2
-27 10 -31 9 -3 16 -12 16 -19 0 -18 58 -75 75 -75 7 0 15 -6 18 -12 3 -10 81
-13 348 -13 l344 0 3 -159 c2 -149 1 -160 -18 -178 -11 -10 -20 -23 -20 -28 0
-12 -68 -80 -80 -80 -6 0 -10 -5 -10 -10 0 -6 -11 -21 -24 -33 -14 -13 -28
-35 -31 -50 -4 -15 -11 -27 -15 -27 -5 0 -11 -13 -15 -30 -4 -16 -10 -30 -15
-30 -4 0 -10 -22 -14 -50 -4 -27 -11 -50 -16 -50 -5 0 -12 -27 -16 -60 -4 -33
-10 -60 -14 -60 -5 0 -12 -30 -16 -67 -3 -38 -11 -71 -16 -74 -5 -3 -11 -23
-15 -45 -3 -21 -9 -41 -13 -44 -4 -3 -10 -26 -14 -52 -6 -42 -5 -47 9 -42 9 4
19 19 22 35 3 16 9 29 13 29 4 0 11 25 15 55 3 30 10 55 14 55 5 0 11 22 15
49 4 27 11 51 16 53 6 2 13 21 17 43 3 22 12 46 20 53 7 7 13 27 13 43 0 17 7
37 15 45 8 9 15 29 15 45 0 16 4 29 9 29 5 0 11 14 15 31 3 18 17 42 30 54 13
12 27 32 31 43 3 12 13 22 21 22 8 0 14 7 14 15 0 8 7 15 15 15 8 0 15 9 15
20 0 32 25 23 27 -10 1 -20 -2 -30 -12 -30 -7 0 -16 -13 -20 -30 -4 -16 -13
-30 -21 -30 -8 0 -14 -7 -14 -15 0 -25 27 -17 34 11 4 15 14 33 21 41 13 13
15 11 15 -15 0 -17 6 -33 13 -36 10 -5 10 -7 0 -12 -7 -3 -13 -14 -13 -24 0
-10 6 -21 13 -24 8 -3 7 -8 -5 -16 -12 -7 -18 -24 -18 -50 0 -22 -4 -40 -9
-40 -5 0 -12 -13 -16 -30 -4 -16 -10 -30 -15 -30 -4 0 -11 -27 -15 -60 -4 -33
-11 -60 -15 -60 -5 0 -12 -20 -16 -45 -3 -25 -10 -45 -15 -45 -4 0 -11 -20
-15 -45 -3 -25 -10 -45 -15 -45 -5 0 -9 -7 -9 -15 0 -9 -8 -19 -17 -22 -20 -8
-43 -28 -43 -38 0 -15 -369 -375 -384 -375 -11 0 -16 9 -16 30 0 17 -4 30 -10
30 -6 0 -10 -27 -10 -60 0 -53 -2 -60 -20 -60 -11 0 -20 7 -20 15 0 8 -4 15
-10 15 -5 0 -10 7 -10 15 0 8 -7 15 -15 15 -10 0 -15 -10 -15 -30 0 -16 5 -30
10 -30 6 0 10 -9 10 -21 0 -33 -25 -16 -28 19 -2 18 -7 32 -12 32 -5 0 -10 12
-12 27 -2 14 -9 28 -15 31 -9 2 -13 -11 -13 -47 0 -28 5 -51 10 -51 6 0 10
-18 10 -40 0 -29 -4 -40 -15 -40 -11 0 -15 11 -15 40 0 39 -6 45 -37 41 -8 -1
-13 11 -13 34 0 25 -4 35 -16 35 -9 0 -18 -9 -21 -20 -3 -11 -12 -20 -19 -20
-11 0 -14 -18 -14 -76 l0 -75 -42 3 -43 3 -3 59 c-3 56 -17 86 -41 86 -6 0
-11 15 -12 33 0 17 -3 26 -6 20 -2 -7 -11 -13 -19 -13 -11 0 -14 -17 -14 -75
0 -104 -19 -94 -22 12 -2 58 -7 88 -15 91 -9 2 -13 -7 -13 -25 0 -38 -10 -73
-21 -73 -5 0 -9 8 -10 18 0 10 -3 12 -6 5 -8 -22 -23 -14 -23 12 0 18 -5 25
-20 25 -11 0 -20 -4 -20 -10 0 -20 -18 -9 -24 15 -6 24 -36 36 -36 15 0 -5 -5
-10 -11 -10 -11 0 -349 333 -349 345 0 4 -27 34 -60 67 -46 46 -60 66 -60 89
0 16 -4 29 -10 29 -5 0 -12 23 -16 50 -4 28 -10 50 -15 50 -4 0 -11 17 -15 38
-4 20 -11 40 -16 43 -5 3 -12 26 -15 50 -4 28 -15 52 -29 66 -13 12 -26 33
-30 47 -3 14 -10 26 -15 26 -5 0 -9 45 -9 101 0 76 4 104 15 115 13 14 15 13
15 -10 0 -27 15 -35 23 -13 3 6 6 2 6 -11 1 -13 20 -40 46 -65 26 -26 45 -53
45 -65 0 -12 4 -22 9 -22 6 0 13 -21 17 -47 4 -27 11 -51 16 -54 5 -3 12 -25
15 -48 3 -22 10 -41 14 -41 5 0 9 -18 9 -40 0 -22 6 -42 13 -47 8 -4 17 -26
20 -47 4 -22 10 -42 15 -45 5 -3 12 -23 16 -43 4 -21 11 -38 16 -38 4 0 12
-14 15 -32 4 -17 14 -39 23 -47 14 -14 15 -10 9 43 -3 33 -10 62 -15 65 -5 3
-12 24 -15 45 -4 22 -10 42 -16 45 -5 3 -12 32 -16 64 -4 31 -11 57 -15 57 -4
0 -11 25 -15 55 -4 31 -11 55 -18 55 -7 0 -6 4 3 10 11 7 12 12 3 18 -6 4 -15
20 -18 35 -4 15 -11 27 -15 27 -4 0 -10 19 -13 42 -3 24 -11 44 -16 46 -6 2
-11 10 -11 18 0 8 -7 17 -15 20 -8 4 -15 12 -15 20 0 7 -16 28 -35 47 -19 19
-35 39 -35 46 0 6 -4 11 -10 11 -5 0 -10 6 -10 14 0 8 -14 28 -31 45 -17 17
-26 31 -20 31 7 0 11 22 11 55 0 30 -4 55 -10 55 -6 0 -10 37 -10 90 l0 90 70
0 c40 0 70 -4 70 -10 0 -5 7 -10 15 -10 8 0 15 5 15 10 0 6 9 10 20 10 11 0
20 -4 20 -10 0 -6 87 -10 240 -10 153 0 240 4 240 10 0 6 10 10 21 10 22 0 99
69 99 89 0 6 4 11 9 11 6 0 11 19 13 43 3 38 6 42 31 45 15 2 27 7 27 12 0 5
14 11 30 15 17 4 30 11 30 16 0 5 16 9 35 9 19 0 35 -4 35 -9z m5030 -25 c0
-8 -7 -17 -16 -20 -28 -11 -34 -6 -17 14 20 23 33 26 33 6z m-6 -122 c20 -19
21 -54 2 -54 -13 0 -26 28 -26 58 0 16 5 15 24 -4z m-17 -156 c-3 -8 -6 -5 -6
6 -1 11 2 17 5 13 3 -3 4 -12 1 -19z m57 -63 c3 -9 0 -15 -9 -15 -8 0 -15 7
-15 15 0 8 4 15 9 15 5 0 11 -7 15 -15z m-34 -64 c0 -24 5 -30 30 -34 l30 -6
0 -86 c0 -69 -3 -85 -15 -85 -8 0 -15 -7 -15 -15 0 -8 7 -15 15 -15 12 0 15
-15 15 -77 0 -43 3 -198 7 -345 5 -239 4 -268 -10 -268 -13 0 -16 26 -19 190
-2 156 -6 192 -18 200 -13 8 -14 41 -11 222 2 146 7 215 15 220 8 6 8 8 -1 8
-7 0 -13 7 -13 15 0 8 -7 15 -15 15 -11 0 -15 12 -15 45 0 25 5 45 10 45 6 0
10 -13 10 -29z m228 -57 c16 -14 18 -29 16 -132 -2 -71 -7 -118 -13 -120 -14
-5 -14 -52 -1 -52 6 0 10 -42 10 -105 0 -63 -4 -105 -10 -105 -5 0 -10 -13
-10 -30 0 -16 5 -30 10 -30 6 0 10 -127 10 -360 0 -233 -4 -360 -10 -360 -14
0 -12 -28 2 -32 14 -5 12 -201 -3 -206 -12 -5 -12 -42 1 -42 7 0 10 -170 10
-490 0 -320 -3 -490 -10 -490 -5 0 -10 -7 -10 -15 0 -8 5 -15 10 -15 6 0 10
-42 10 -105 0 -63 -4 -105 -10 -105 -5 0 -10 -9 -10 -20 0 -11 5 -20 10 -20 6
0 10 -18 10 -40 0 -27 5 -43 15 -46 22 -9 18 -22 -7 -30 -13 -4 -26 -11 -30
-17 -9 -15 -87 -10 -104 7 -16 17 -19 36 -4 36 7 0 10 491 10 1452 0 1369 1
1452 18 1469 21 22 66 24 90 3z m72 -53 c0 -6 -4 -11 -9 -11 -5 0 -12 -8 -14
-17 -3 -10 -5 1 -6 25 -1 39 1 42 14 28 8 -8 15 -19 15 -25z m0 -123 c3 -109
-2 -1113 -5 -1117 -16 -15 -19 56 -19 484 -1 373 -4 475 -13 475 -18 0 -16 17
1 23 12 5 14 21 10 76 -4 60 -3 71 10 71 9 0 16 -6 16 -12z m-300 -533 c0
-163 -4 -255 -10 -255 -6 0 -10 92 -10 255 0 163 4 255 10 255 6 0 10 -92 10
-255z m-2813 -62 c-3 -10 -5 -4 -5 12 0 17 2 24 5 18 2 -7 2 -21 0 -30z
m-3136 -23 c5 0 9 -7 9 -15 0 -8 -4 -15 -9 -15 -10 0 -21 36 -20 60 1 8 4 5 6
-7 2 -13 9 -23 14 -23z m6011 -132 c3 -13 6 -263 7 -555 3 -485 2 -533 -13
-533 -19 0 -22 -36 -3 -43 9 -3 11 -56 9 -233 -3 -211 -7 -259 -19 -227 -4 10
-8 9 -19 -1 -16 -17 -19 -36 -4 -36 5 0 12 -16 16 -35 3 -19 10 -35 15 -35 5
0 9 -65 9 -145 0 -122 -2 -145 -15 -145 -12 0 -15 13 -15 55 0 30 -4 55 -10
55 -5 0 -10 14 -10 30 0 17 5 30 10 30 6 0 10 14 10 30 0 17 -4 30 -10 30 -15
0 -12 30 3 31 10 0 10 2 0 6 -7 2 -13 15 -13 28 0 13 6 26 13 29 6 3 0 3 -15
0 l-28 -6 0 786 c0 517 3 786 10 786 6 0 10 -120 11 -337 1 -186 4 -329 6
-318 3 11 10 23 17 27 16 10 14 620 -2 626 -17 5 -15 49 3 56 9 3 15 18 15 36
0 35 16 40 22 8z m-5965 -55 c-2 -16 -4 -5 -4 22 0 28 2 40 4 28 2 -13 2 -35
0 -50z m1736 15 c4 -12 4 -24 2 -27 -3 -2 -5 1 -5 7 0 7 -4 12 -10 12 -5 0
-11 -26 -12 -57 -1 -47 -2 -50 -5 -18 -8 74 16 139 30 83z m-1803 -83 c0 -8
-4 -15 -10 -15 -5 0 -10 7 -10 15 0 8 5 15 10 15 6 0 10 -7 10 -15z m216 -9
c8 -32 2 -58 -13 -64 -8 -2 -13 5 -13 17 0 12 5 21 10 21 6 0 10 5 10 10 0 6
-7 10 -15 10 -9 0 -12 6 -9 15 9 22 23 18 30 -9z m1591 -18 c-3 -8 -6 -5 -6 6
-1 11 2 17 5 13 3 -3 4 -12 1 -19z m-157 -3 c0 -8 -4 -15 -10 -15 -5 0 -10 7
-10 15 0 8 5 15 10 15 6 0 10 -7 10 -15z m-1380 -26 c0 -14 -17 -10 -23 5 -4
10 -1 13 9 9 7 -3 14 -9 14 -14z m1336 -24 c-15 -16 -12 -45 5 -45 5 0 9 -13
9 -30 0 -16 -4 -30 -9 -30 -5 0 -13 -15 -16 -32 -4 -18 -13 -37 -19 -41 -8 -6
-8 -10 1 -14 10 -3 9 -8 -2 -20 -8 -8 -15 -27 -15 -43 0 -16 -7 -30 -15 -34
-9 -3 -15 0 -15 9 0 8 -7 15 -15 15 -8 0 -15 -4 -15 -10 0 -5 -13 -10 -30 -10
-27 0 -30 -3 -30 -32 0 -18 4 -28 8 -22 4 6 25 14 47 17 22 4 34 4 28 1 -8 -3
-13 -24 -13 -50 0 -32 -4 -44 -15 -44 -8 0 -18 -12 -21 -27 -4 -16 -11 -31
-16 -34 -9 -6 -16 -41 -17 -86 -1 -15 -9 -23 -31 -28 -26 -6 -29 -9 -23 -36 4
-22 2 -29 -11 -29 -9 0 -16 -7 -16 -15 0 -8 -7 -15 -15 -15 -8 0 -15 -4 -15
-10 0 -5 6 -10 13 -10 8 0 9 -2 1 -8 -6 -4 -14 -17 -18 -29 -4 -14 -17 -23
-34 -26 -15 -2 -6 -4 21 -4 42 0 52 4 87 38 22 22 40 43 40 49 0 5 7 10 15 10
8 0 17 11 21 25 3 14 10 25 15 25 5 0 9 9 9 20 0 11 7 20 15 20 15 0 18 9 19
60 1 20 7 26 29 28 22 3 27 -1 27 -17 0 -12 -7 -21 -15 -21 -8 0 -15 -7 -15
-15 0 -8 -4 -15 -10 -15 -5 0 -10 -7 -10 -15 0 -8 -7 -15 -15 -15 -14 0 -21
-30 -16 -68 1 -7 -5 -15 -13 -18 -8 -3 -18 -19 -21 -35 -4 -16 -10 -29 -15
-29 -5 0 -11 -13 -15 -30 -4 -16 -10 -30 -15 -30 -5 0 -11 -13 -15 -30 -4 -16
-10 -30 -15 -30 -4 0 -10 -23 -12 -50 -3 -28 -7 -53 -10 -56 -3 -3 -38 -8 -77
-11 -39 -3 -71 -9 -71 -13 0 -4 -18 -10 -40 -14 -22 -3 -40 -11 -40 -16 0 -6
-14 -10 -30 -10 -18 0 -33 -6 -36 -15 -4 -8 -12 -15 -19 -15 -13 0 -75 -56
-75 -67 0 -11 55 9 63 23 4 8 15 14 22 14 8 0 15 4 15 10 0 5 17 12 38 16 20
4 39 10 42 14 7 10 119 20 124 11 10 -15 -7 -51 -26 -57 -22 -7 -98 -81 -98
-95 0 -5 -17 -26 -38 -47 -21 -20 -41 -45 -45 -54 -3 -10 -13 -18 -22 -18 -8
0 -15 -5 -15 -11 0 -7 -11 -22 -25 -35 -14 -13 -25 -27 -25 -33 0 -5 -13 -23
-30 -39 -16 -17 -30 -35 -30 -41 0 -6 -6 -11 -13 -11 -7 0 -20 -9 -30 -20 -9
-11 -24 -20 -32 -20 -8 0 -15 -4 -15 -9 0 -12 -48 -23 -71 -16 -10 4 -22 17
-25 31 -3 13 -10 24 -15 24 -5 0 -13 8 -16 18 -4 9 -19 30 -35 45 -15 16 -28
35 -28 43 0 8 -4 14 -10 14 -5 0 -10 7 -10 15 0 9 -6 18 -14 21 -8 3 -18 19
-21 35 -4 16 -10 29 -15 29 -5 0 -11 14 -15 30 -4 17 -11 30 -16 30 -5 0 -12
18 -15 40 -4 22 -10 40 -15 40 -5 0 -9 7 -9 15 0 9 -6 18 -14 21 -8 3 -18 19
-21 35 -4 16 -11 29 -16 29 -5 0 -9 7 -9 15 0 20 49 20 56 0 3 -8 22 -17 41
-21 23 -4 50 -21 73 -45 37 -38 60 -49 60 -29 0 15 -64 80 -79 80 -6 0 -11 4
-11 10 0 5 -11 12 -25 16 -14 3 -25 10 -25 14 0 5 -13 11 -30 15 -16 4 -30 10
-30 15 0 4 -13 10 -29 13 -34 7 -71 35 -71 54 0 7 -4 13 -9 13 -5 0 -12 14
-16 30 -4 17 -11 30 -16 30 -5 0 -11 11 -15 25 -3 14 -10 25 -14 25 -5 0 -11
13 -15 29 -3 16 -13 32 -21 35 -8 3 -14 12 -14 21 0 8 -4 15 -9 15 -5 0 -12
11 -15 25 -4 14 -11 25 -16 25 -6 0 -10 7 -10 15 0 7 -6 18 -14 22 -8 4 -18
21 -22 37 -7 28 -6 29 25 23 24 -5 31 -3 31 10 0 12 6 9 25 -11 13 -14 29 -26
34 -26 6 0 8 -7 5 -15 -4 -9 0 -15 10 -15 9 0 16 -7 16 -15 0 -8 6 -15 14 -15
8 0 17 -12 20 -26 4 -15 20 -38 37 -53 16 -14 29 -31 29 -38 0 -7 4 -13 10
-13 5 0 12 -11 16 -25 3 -14 10 -25 14 -25 5 0 11 -13 15 -30 4 -16 10 -30 15
-30 5 0 11 -13 15 -30 4 -16 11 -30 16 -30 5 0 9 -7 9 -15 0 -8 7 -15 15 -15
9 0 15 9 15 25 0 14 -4 25 -9 25 -5 0 -12 16 -15 35 -4 19 -11 35 -16 35 -6 0
-10 13 -10 29 0 16 -6 36 -13 43 -8 7 -17 26 -21 41 -3 15 -11 27 -16 27 -6 0
-10 7 -10 15 0 8 5 15 11 15 6 0 3 7 -5 16 -9 8 -16 21 -16 29 0 7 -7 15 -15
19 -8 3 -15 17 -15 31 0 26 -15 34 -23 13 -2 -7 -3 -6 -2 3 3 23 -15 49 -21
32 -4 -10 -8 -10 -18 0 -15 14 -2 32 30 40 16 4 16 5 -3 6 -14 1 -23 7 -23 17
0 10 -6 14 -15 10 -8 -3 -15 0 -15 6 0 6 -7 16 -16 23 -20 14 -10 54 14 56 15
1 15 2 0 6 -10 2 -18 11 -18 18 0 8 -6 13 -12 11 -7 -1 -10 -1 -5 1 4 3 7 22
7 43 0 32 4 39 23 43 16 3 14 5 -10 6 -17 0 -33 7 -36 14 -2 6 -3 -10 -1 -38
2 -27 1 -42 -2 -32 -3 9 -11 17 -17 17 -7 0 -6 4 3 10 13 9 13 12 -2 21 -12 7
-18 22 -18 49 0 21 -4 40 -8 42 -5 2 -12 24 -15 51 -6 42 -5 47 12 47 11 0 33
-13 49 -30 30 -30 52 -39 52 -21 0 5 -4 11 -9 13 -5 2 -13 15 -16 31 -6 20 -4
27 8 27 8 0 18 -11 21 -24 3 -14 15 -28 27 -31 12 -4 38 -25 59 -46 21 -21 43
-39 49 -39 6 0 11 -9 11 -20 0 -11 6 -20 14 -20 8 0 17 -11 20 -25 4 -14 13
-25 20 -25 8 0 21 -6 28 -13 7 -7 21 -16 32 -20 13 -5 17 -13 12 -32 -6 -23
-4 -25 29 -25 23 0 41 -7 52 -20 10 -11 21 -20 26 -20 12 0 37 -27 37 -39 0
-6 -7 -11 -15 -11 -8 0 -15 7 -15 15 0 12 -13 15 -56 15 -49 0 -54 -2 -40 -15
17 -17 36 -20 36 -5 0 6 7 10 15 10 8 0 15 -4 15 -9 0 -5 14 -12 30 -16 34 -8
37 -13 14 -30 -13 -9 -15 -20 -10 -48 4 -21 11 -37 16 -37 6 0 10 -22 10 -50
0 -46 -2 -50 -24 -50 -47 0 -56 10 -56 56 0 32 -4 44 -15 44 -11 0 -15 -12
-15 -50 0 -27 5 -50 10 -50 6 0 10 -11 10 -25 0 -16 6 -25 15 -25 8 0 15 7 15
15 0 8 7 15 15 15 8 0 15 -7 15 -16 0 -13 2 -13 17 2 14 13 18 14 22 3 2 -8 9
-17 15 -21 8 -5 7 -8 -1 -8 -15 0 -18 -47 -3 -52 5 -1 11 -16 13 -33 3 -16 2
-24 0 -17 -5 14 -23 16 -23 2 0 -5 -10 -11 -22 -11 l-23 -2 23 -4 c12 -2 22
-9 22 -14 0 -5 7 -9 15 -9 8 0 15 -9 15 -20 0 -11 4 -20 10 -20 5 0 12 -11 16
-25 3 -14 10 -25 14 -25 5 0 11 -13 15 -30 4 -16 13 -30 21 -30 9 0 14 11 14
30 0 34 19 41 27 10 8 -32 33 -24 33 10 0 36 15 40 24 5 7 -27 36 -35 36 -10
0 9 9 15 25 15 16 0 25 6 25 15 0 8 -4 15 -10 15 -5 0 -12 11 -16 25 -3 14
-10 25 -15 25 -5 0 -9 23 -9 50 0 28 5 50 10 50 6 0 10 7 10 15 0 8 -4 15 -10
15 -5 0 -10 18 -10 40 0 66 17 45 24 -29 5 -46 12 -71 22 -75 10 -4 14 3 14
24 0 17 5 30 10 30 6 0 10 -4 10 -10 0 -5 14 -10 30 -10 26 0 30 3 30 29 0 16
-6 32 -12 35 -10 5 -10 7 0 12 6 3 12 14 12 25 0 17 8 19 75 19 60 0 75 3 75
15 0 8 7 15 15 15 11 0 15 12 15 45 l0 45 -60 0 -60 0 0 30 c0 27 3 30 30 30
25 0 30 4 30 24 0 19 -7 26 -30 31 -23 5 -30 12 -30 31 0 13 -5 24 -11 24 -13
0 10 24 32 32 12 5 16 2 12 -11 -3 -11 2 -17 15 -17 15 0 18 6 16 29 -3 18 2
30 11 33 8 4 15 12 15 19 0 15 45 65 60 65 5 0 10 5 10 10 0 12 37 50 49 50
13 0 61 48 61 61 0 6 8 9 20 6 24 -6 50 17 50 44 0 26 18 24 23 -3 3 -17 5
-15 6 9 1 29 9 37 44 42 5 0 2 -6 -7 -14z m111 -37 c-3 -8 -6 -5 -6 6 -1 11 2
17 5 13 3 -3 4 -12 1 -19z m-187 2 c0 -5 -4 -10 -10 -10 -5 0 -10 5 -10 10 0
6 5 10 10 10 6 0 10 -4 10 -10z m180 -70 c0 -20 -5 -30 -15 -30 -17 0 -18 4
-9 38 9 32 24 27 24 -8z m-1920 10 c0 -5 -4 -10 -10 -10 -5 0 -10 5 -10 10 0
6 5 10 10 10 6 0 10 -4 10 -10z m1950 -5 c0 -8 -4 -15 -10 -15 -5 0 -10 7 -10
15 0 8 5 15 10 15 6 0 10 -7 10 -15z m-1590 -50 c0 -8 -7 -15 -15 -15 -16 0
-20 12 -8 23 11 12 23 8 23 -8z m1597 -42 c-3 -10 -5 -2 -5 17 0 19 2 27 5 18
2 -10 2 -26 0 -35z m-1602 -42 c-6 -5 -25 10 -25 20 0 5 6 4 14 -3 8 -7 12
-15 11 -17z m1537 19 c2 -5 1 -32 0 -60 -3 -35 -8 -50 -18 -50 -8 0 -14 -7
-14 -15 0 -9 -10 -15 -26 -15 -23 0 -24 1 -10 16 9 8 16 29 16 45 0 30 14 39
24 17 3 -7 4 -1 1 14 -5 29 2 58 15 58 5 0 10 -4 12 -10z m-1498 -62 c10 -40
7 -68 -9 -68 -11 0 -15 12 -15 45 0 48 14 60 24 23z m1563 -30 c-3 -8 -6 -5
-6 6 -1 11 2 17 5 13 3 -3 4 -12 1 -19z m-60 -70 c-3 -7 -5 -2 -5 12 0 14 2
19 5 13 2 -7 2 -19 0 -25z m4583 12 c0 -5 -4 -10 -10 -10 -5 0 -10 5 -10 10 0
6 5 10 10 10 6 0 10 -4 10 -10z m-5112 -17 c-10 -2 -18 -9 -18 -14 0 -5 -7 -9
-15 -9 -8 0 -15 4 -15 9 0 10 24 19 50 19 10 0 9 -2 -2 -5z m467 -52 c-4 -25
-12 -41 -21 -41 -8 0 -11 6 -8 15 4 9 0 15 -10 15 -9 0 -16 7 -16 15 0 8 7 15
15 15 8 0 15 -4 15 -10 0 -5 5 -10 10 -10 6 0 10 12 10 27 0 14 3 24 6 20 3
-3 3 -24 -1 -46z m-1479 -1 c8 0 14 5 14 10 0 18 39 11 61 -11 26 -26 19 -34
-27 -31 -35 3 -75 28 -73 47 0 5 3 4 6 -2 2 -7 11 -13 19 -13z m844 10 c0 -5
-13 -10 -30 -10 -16 0 -30 5 -30 10 0 6 14 10 30 10 17 0 30 -4 30 -10z m100
0 c0 -5 -9 -10 -20 -10 -11 0 -20 5 -20 10 0 6 9 10 20 10 11 0 20 -4 20 -10z
m-223 -16 c-3 -3 -12 -4 -19 -1 -8 3 -5 6 6 6 11 1 17 -2 13 -5z m63 -44 c0
-27 5 -42 17 -49 20 -11 17 -16 -14 -25 -18 -6 -23 -3 -24 11 0 10 -3 13 -6 6
-2 -7 -9 -13 -14 -13 -14 0 -11 27 4 34 10 5 10 7 0 12 -18 8 -16 34 2 34 8 0
15 7 15 15 0 8 5 15 10 15 6 0 10 -18 10 -40z m120 30 c0 -5 7 -10 15 -10 12
0 15 -17 15 -90 0 -89 0 -90 -25 -90 -20 0 -25 5 -25 24 0 15 7 26 18 29 9 3
2 5 -15 6 -27 1 -33 -3 -33 -19 0 -11 5 -20 10 -20 6 0 10 -4 10 -10 0 -5 -7
-10 -15 -10 -10 0 -15 10 -15 29 0 16 7 36 15 45 8 8 15 32 15 54 0 22 3 47 6
56 7 18 24 22 24 6z m5220 -25 c0 -8 -4 -15 -10 -15 -5 0 -10 7 -10 15 0 8 5
15 10 15 6 0 10 -7 10 -15z m-5340 -170 c0 -30 -4 -55 -10 -55 -5 0 -10 25
-10 55 0 30 5 55 10 55 6 0 10 -25 10 -55z m5340 30 c0 -14 -4 -25 -10 -25 -5
0 -10 11 -10 25 0 14 5 25 10 25 6 0 10 -11 10 -25z m-5423 -77 c-3 -8 -6 -5
-6 6 -1 11 2 17 5 13 3 -3 4 -12 1 -19z m53 -215 c0 -20 -24 -11 -28 10 -2 12
1 15 12 11 9 -3 16 -13 16 -21z m5347 -65 c-3 -7 -5 -2 -5 12 0 14 2 19 5 13
2 -7 2 -19 0 -25z m0 -130 c-2 -13 -4 -3 -4 22 0 25 2 35 4 23 2 -13 2 -33 0
-45z m14 -178 c5 0 9 -51 9 -115 0 -126 -13 -154 -23 -47 -8 74 -7 207 0 180
2 -10 9 -18 14 -18z m854 -137 c-3 -17 -13 -34 -22 -37 -13 -5 -15 -1 -9 26 4
18 11 35 16 36 6 2 11 29 12 60 l2 57 3 -55 c3 -30 2 -69 -2 -87z m-1 -149 c7
-52 6 -379 -1 -351 -2 9 -9 17 -14 17 -14 0 -11 58 4 63 9 4 9 8 0 14 -16 11
-23 303 -7 303 6 0 14 -21 18 -46z m-6270 -60 c3 -9 6 -74 6 -145 0 -79 4
-129 10 -129 6 0 10 -13 10 -30 0 -16 -4 -30 -10 -30 -6 0 -10 -42 -10 -105
l0 -105 -30 0 -29 0 -3 263 c-2 144 -1 270 1 280 4 22 47 23 55 1z m5426 -84
c0 -5 -4 -10 -10 -10 -5 0 -10 5 -10 10 0 6 5 10 10 10 6 0 10 -4 10 -10z
m-5456 -627 c0 -66 -7 -94 -18 -82 -3 3 -6 39 -8 82 -2 65 0 77 12 75 12 -3
15 -19 14 -75z m-4 -133 c0 -20 -5 -30 -15 -30 -10 0 -15 10 -15 30 0 20 5 30
15 30 10 0 15 -10 15 -30z m5320 -140 c0 -38 4 -70 9 -70 5 0 12 -13 16 -30 4
-16 11 -30 16 -30 5 0 9 -49 9 -110 0 -93 2 -109 15 -104 12 5 15 29 15 125 0
99 -3 119 -15 119 -12 0 -15 14 -15 63 0 86 7 107 36 107 l24 0 2 -192 c6
-413 6 -551 1 -760 -3 -120 -9 -218 -14 -218 -5 0 -9 14 -9 30 0 20 -5 30 -15
30 -11 0 -15 -11 -15 -40 0 -22 5 -40 10 -40 6 0 10 -13 10 -30 0 -16 -4 -30
-10 -30 -16 0 -12 -60 5 -76 13 -14 15 -13 15 10 0 14 5 26 10 26 6 0 10 -25
10 -55 l0 -55 -84 0 -83 0 -5 51 c-3 28 -12 55 -19 60 -10 6 -10 9 -1 9 7 0
12 13 12 30 0 17 -4 30 -10 30 -6 0 -10 35 -10 85 0 67 -3 87 -15 91 -16 6
-21 34 -6 34 4 0 11 30 14 67 4 38 11 69 17 71 12 4 14 92 1 92 -4 0 -11 21
-14 46 -2 26 -11 50 -18 55 -12 8 -12 10 0 18 8 5 16 33 19 62 3 30 9 57 15
60 13 9 12 62 -2 67 -13 4 -15 62 -2 62 5 0 12 27 16 60 4 33 11 60 16 60 5 0
9 65 9 145 0 138 1 145 20 145 18 0 20 -7 20 -70z m540 30 c0 -22 5 -40 10
-40 6 0 10 -13 10 -30 0 -16 -4 -30 -10 -30 -13 0 -14 -267 0 -272 5 -1 13
-18 16 -37 7 -33 7 -34 -22 -27 -37 10 -42 15 -24 26 9 6 10 10 3 10 -7 0 -15
24 -19 60 -4 33 -11 60 -15 60 -5 0 -9 14 -9 30 0 17 5 30 10 30 6 0 10 50 10
130 0 123 1 130 20 130 17 0 20 -7 20 -40z m66 26 c19 -20 21 -282 2 -289 -10
-4 -10 -7 0 -15 7 -5 15 -26 19 -48 3 -21 9 -41 13 -44 4 -3 11 -20 15 -37 6
-32 5 -33 -24 -33 -28 0 -30 3 -37 48 -4 26 -12 50 -18 54 -11 7 -13 44 -8
256 2 123 7 138 38 108z m-700 -273 c-10 -24 -26 -13 -26 17 0 17 5 30 10 30
6 0 10 23 10 50 0 28 -4 50 -10 50 -5 0 -10 14 -10 30 0 17 5 30 10 30 6 0 11
15 12 33 1 17 4 -26 5 -97 2 -72 1 -136 -1 -143z m-6 -143 c0 -11 -4 -20 -10
-20 -5 0 -10 9 -10 20 0 11 5 20 10 20 6 0 10 -9 10 -20z m1058 -868 c2 -23 7
-42 13 -42 5 0 9 -16 9 -35 0 -63 -18 -37 -25 38 -4 39 -12 76 -19 80 -7 6 -6
7 4 4 10 -2 16 -19 18 -45z m82 -2 c0 -5 -4 -10 -10 -10 -5 0 -10 5 -10 10 0
6 5 10 10 10 6 0 10 -4 10 -10z m-140 -87 c0 -10 -4 -14 -8 -8 -4 6 -11 13
-16 18 -5 4 -2 7 7 7 10 0 17 -8 17 -17z m-842 -123 c2 -41 8 -77 13 -81 12
-7 19 -89 11 -126 -6 -32 -19 -28 -27 7 -7 30 -20 40 -27 19 -3 -9 -39 -14
-75 -10 -15 1 -19 111 -4 111 4 0 11 25 15 56 5 42 13 61 33 80 45 41 58 29
61 -56z m712 34 c0 -28 -5 -44 -15 -48 -8 -3 -15 -17 -15 -31 0 -16 -6 -25
-16 -25 -11 0 -15 8 -14 28 3 46 1 52 -25 52 -23 0 -25 -4 -25 -45 0 -33 -4
-45 -15 -45 -18 0 -20 37 -3 42 13 5 -25 48 -42 48 -5 0 -10 7 -10 15 0 10 11
15 33 16 17 0 26 3 20 6 -7 2 -13 9 -13 14 0 14 28 11 34 -3 3 -9 8 -8 16 4 8
13 23 17 50 16 l40 -1 0 -43z m-653 -126 c-2 -24 -4 -7 -4 37 0 44 2 63 4 43
2 -21 2 -57 0 -80z m713 82 c0 -16 -4 -30 -9 -30 -12 0 -24 37 -16 50 12 20
25 10 25 -20z m81 -30 c5 0 9 -7 9 -15 0 -8 -7 -15 -15 -15 -11 0 -15 11 -14
43 2 29 3 34 6 15 2 -16 9 -28 14 -28z m93 -32 c7 -5 4 -8 -6 -8 -12 0 -18 7
-17 23 0 15 2 17 6 7 3 -8 11 -18 17 -22z m-414 6 c0 -17 -22 -14 -28 4 -2 7
3 12 12 12 9 0 16 -7 16 -16z m-60 -444 c0 -13 5 -18 15 -14 8 4 15 12 15 20
0 27 28 14 35 -16 4 -16 13 -30 21 -30 9 0 14 11 14 30 0 25 4 30 24 30 19 0
26 -7 31 -30 8 -37 23 -39 27 -3 3 30 38 47 38 19 0 -9 5 -16 10 -16 6 0 11
-10 11 -22 1 -17 2 -19 6 -5 2 9 9 17 14 17 5 0 9 9 9 20 0 11 7 20 15 20 17
0 28 -50 23 -110 -2 -28 1 -44 10 -47 9 -3 12 11 12 54 0 72 8 103 26 103 10
0 14 -16 14 -60 0 -33 4 -60 10 -60 6 0 10 -16 10 -35 0 -26 3 -33 15 -29 9 4
15 0 15 -10 0 -9 -7 -16 -15 -16 -8 0 -15 -7 -15 -15 0 -8 -6 -15 -12 -16 -10
0 -10 -2 0 -6 20 -8 14 -71 -8 -93 -11 -11 -22 -20 -25 -20 -3 0 -5 32 -5 71
0 63 -2 69 -15 55 -17 -17 -20 -46 -5 -46 19 0 11 -69 -10 -90 -28 -28 -40
-25 -40 10 0 17 -4 30 -10 30 -5 0 -10 -20 -10 -45 0 -29 -4 -45 -12 -45 -7 0
-23 -3 -35 -6 -19 -5 -23 -2 -23 15 0 12 -6 21 -15 21 -10 0 -15 -10 -15 -30
0 -16 -4 -30 -10 -30 -5 0 -10 -7 -10 -15 0 -8 -9 -15 -20 -15 -11 0 -20 6
-20 14 0 8 -5 16 -10 18 -6 2 -13 75 -17 181 -3 97 -10 177 -15 177 -4 0 -8 7
-8 15 0 8 -7 15 -15 15 -11 0 -15 -12 -15 -49 0 -27 5 -51 11 -53 6 -2 11 -47
13 -113 2 -70 7 -110 15 -113 6 -2 11 -24 11 -49 0 -46 -16 -73 -44 -73 -13 0
-16 15 -16 90 0 53 -4 90 -10 90 -6 0 -10 44 -10 113 0 125 -6 157 -27 157
-10 0 -12 6 -7 23 12 39 54 52 54 17z m-84 -12 c4 -13 11 -26 16 -29 4 -3 10
-30 12 -59 2 -30 9 -56 15 -58 14 -5 14 -99 0 -104 -15 -5 -17 -100 -1 -105 8
-3 12 -28 12 -79 0 -72 -1 -74 -25 -74 -16 0 -25 6 -25 15 0 8 5 15 10 15 15
0 12 58 -2 62 -10 4 -14 51 -16 181 -2 101 -7 177 -13 177 -5 0 -9 18 -9 40 0
44 14 53 26 18z m-11406 -619 c0 -16 -6 -20 -27 -17 -40 4 -42 32 -3 35 24 2
30 -2 30 -18z m-423 -15 c-3 -3 -12 -4 -19 -1 -8 3 -5 6 6 6 11 1 17 -2 13 -5z
m283 -19 c0 -8 -6 -15 -14 -15 -8 0 -16 -7 -20 -15 -3 -9 -17 -15 -38 -14 -21
1 -26 3 -14 6 11 3 26 11 34 19 7 8 20 14 28 14 8 0 14 5 14 10 0 6 2 10 5 10
3 0 5 -7 5 -15z m107 -27 c6 14 33 16 33 2 0 -5 -4 -10 -10 -10 -5 0 -10 -7
-10 -15 0 -8 5 -15 10 -15 6 0 10 -16 10 -35 0 -50 -18 -43 -25 9 -4 25 -13
47 -21 50 -8 3 -14 11 -14 18 0 9 3 9 11 -2 8 -11 12 -12 16 -2z m-297 -28 c0
-5 -4 -10 -10 -10 -5 0 -10 5 -10 10 0 6 5 10 10 10 6 0 10 -4 10 -10z m-62
-17 c-10 -2 -26 -2 -35 0 -10 3 -2 5 17 5 19 0 27 -2 18 -5z m182 -13 c0 -5
-7 -10 -15 -10 -8 0 -15 5 -15 10 0 6 7 10 15 10 8 0 15 -4 15 -10z m180 -25
c0 -8 -4 -15 -10 -15 -5 0 -10 7 -10 15 0 8 5 15 10 15 6 0 10 -7 10 -15z
m10724 -741 c19 -7 20 -21 3 -38 -10 -11 -15 -11 -25 0 -14 15 -16 44 -3 44 5
0 16 -3 25 -6z m-188 -26 c-3 -13 -6 -26 -6 -30 0 -12 -50 -9 -50 2 0 15 33
48 49 49 9 1 11 -6 7 -21z m54 7 c0 -8 -7 -15 -15 -15 -8 0 -15 7 -15 15 0 8
7 15 15 15 8 0 15 -7 15 -15z m60 -20 c0 -8 -7 -15 -15 -15 -8 0 -15 7 -15 15
0 8 7 15 15 15 8 0 15 -7 15 -15z m150 -5 c0 -11 -4 -20 -10 -20 -5 0 -10 9
-10 20 0 11 5 20 10 20 6 0 10 -9 10 -20z m-510 0 c0 -5 -4 -10 -10 -10 -5 0
-10 5 -10 10 0 6 5 10 10 10 6 0 10 -4 10 -10z m70 0 c0 -5 -7 -10 -15 -10 -8
0 -15 5 -15 10 0 6 7 10 15 10 8 0 15 -4 15 -10z m-300 -105 c0 -19 -5 -25
-21 -25 -15 0 -19 4 -15 16 3 9 6 20 6 25 0 5 7 9 15 9 9 0 15 -9 15 -25z
m-696 -10 c-4 -8 -10 -15 -16 -15 -5 0 -16 7 -24 15 -14 13 -12 15 15 15 23 0
29 -4 25 -15z m180 0 c-4 -8 -10 -15 -15 -15 -5 0 -9 7 -9 15 0 8 7 15 15 15
9 0 12 -6 9 -15z m63 -67 c-2 -13 -4 -5 -4 17 -1 22 1 32 4 23 2 -10 2 -28 0
-40z m-67 27 c0 -8 -4 -15 -10 -15 -5 0 -10 7 -10 15 0 8 5 15 10 15 6 0 10
-7 10 -15z m160 5 c0 -5 -6 -10 -14 -10 -8 0 -17 -8 -19 -17 -3 -11 -5 -7 -6
10 -1 21 4 27 19 27 11 0 20 -4 20 -10z m200 -5 c0 -8 -4 -15 -10 -15 -5 0
-10 7 -10 15 0 8 5 15 10 15 6 0 10 -7 10 -15z m190 -5 l20 -20 -20 -20 c-24
-24 -27 -24 -46 -6 -16 17 -19 36 -4 36 6 0 10 7 10 15 0 21 16 19 40 -5z
m-813 -52 c-3 -8 -6 -5 -6 6 -1 11 2 17 5 13 3 -3 4 -12 1 -19z m-297 2 c0 -5
-7 -10 -15 -10 -8 0 -15 5 -15 10 0 6 7 10 15 10 8 0 15 -4 15 -10z m2720 0
c0 -5 -4 -10 -10 -10 -5 0 -10 5 -10 10 0 6 5 10 10 10 6 0 10 -4 10 -10z
m-1896 -17 c-5 -5 -12 -12 -16 -18 -4 -6 -8 -2 -8 8 0 9 7 17 17 17 9 0 12 -3
7 -7z m1850 1 c25 -10 19 -34 -9 -34 -18 0 -25 5 -25 20 0 21 8 24 34 14z
m-1147 -26 c-3 -8 -6 -5 -6 6 -1 11 2 17 5 13 3 -3 4 -12 1 -19z m593 6 c0
-11 -5 -14 -16 -10 -9 3 -20 6 -25 6 -5 0 -9 5 -9 10 0 6 11 10 25 10 16 0 25
-6 25 -16z m300 1 c0 -8 -4 -15 -10 -15 -5 0 -10 7 -10 15 0 8 5 15 10 15 6 0
10 -7 10 -15z m60 5 c0 -5 -4 -10 -10 -10 -5 0 -10 5 -10 10 0 6 5 10 10 10 6
0 10 -4 10 -10z m100 -5 c0 -8 -7 -15 -15 -15 -8 0 -15 7 -15 15 0 8 7 15 15
15 8 0 15 -7 15 -15z m-310 -20 c0 -8 -4 -15 -10 -15 -5 0 -10 7 -10 15 0 8 5
15 10 15 6 0 10 -7 10 -15z m210 -215 c0 -5 -7 -10 -15 -10 -8 0 -15 5 -15 10
0 6 7 10 15 10 8 0 15 -4 15 -10z"/>
<path d="M11340 9445 c0 -8 7 -15 15 -15 8 0 15 7 15 15 0 8 -7 15 -15 15 -8
0 -15 -7 -15 -15z"/>
<path d="M11350 9345 c0 -14 5 -25 10 -25 6 0 10 11 10 25 0 14 -4 25 -10 25
-5 0 -10 -11 -10 -25z"/>
<path d="M6277 8758 c3 -139 7 -255 9 -257 17 -18 21 45 17 262 -5 184 -9 247
-18 247 -9 0 -11 -59 -8 -252z"/>
<path d="M6212 8805 c-1 -71 1 -147 4 -167 12 -72 24 -38 24 67 0 60 -4 105
-10 105 -5 0 -11 28 -13 63 -2 34 -4 4 -5 -68z"/>
<path d="M6152 8718 c-2 -136 0 -157 13 -152 12 5 15 29 15 125 0 67 -4 119
-9 119 -6 0 -12 15 -14 33 -2 17 -5 -39 -5 -125z"/>
<path d="M6310 8840 c0 -16 4 -30 10 -30 5 0 12 -16 16 -35 3 -19 10 -35 15
-35 4 0 9 -19 11 -42 4 -53 28 -65 28 -14 0 20 -4 36 -9 36 -5 0 -12 27 -16
60 -4 33 -11 60 -16 60 -5 0 -9 7 -9 15 0 8 -7 15 -15 15 -10 0 -15 -10 -15
-30z"/>
<path d="M5970 8520 c0 -22 -4 -40 -10 -40 -5 0 -10 -14 -10 -30 0 -22 10 -42
34 -65 18 -19 38 -35 44 -35 6 0 12 -5 14 -10 2 -6 21 -13 42 -17 42 -7 76
-29 76 -50 0 -7 5 -13 10 -13 6 0 10 9 10 20 0 11 -4 20 -10 20 -5 0 -10 7
-10 15 0 8 -7 15 -15 15 -8 0 -15 4 -15 9 0 6 -20 13 -45 17 -25 3 -45 10 -45
15 0 5 -10 9 -21 9 -21 0 -22 3 -16 90 5 84 4 90 -14 90 -16 0 -19 -7 -19 -40z"/>
<path d="M6512 8508 c-1 -32 -6 -58 -11 -58 -5 0 -11 -13 -14 -30 -5 -21 -14
-31 -32 -36 -14 -3 -25 -10 -25 -14 0 -5 -14 -11 -30 -15 -20 -4 -32 -14 -36
-30 -3 -14 -16 -26 -30 -29 -26 -7 -33 -26 -9 -26 8 0 15 4 15 10 0 5 11 12
24 16 14 3 27 12 30 20 3 8 12 14 21 14 8 0 15 4 15 9 0 5 12 12 26 15 29 8
54 29 54 46 0 6 7 13 15 16 16 7 21 64 6 64 -6 0 -12 19 -14 43 -3 36 -4 34
-5 -15z"/>
<path d="M5320 8470 c0 -28 13 -40 24 -22 7 12 -5 52 -15 52 -5 0 -9 -13 -9
-30z"/>
<path d="M5371 8424 c0 -11 3 -14 6 -6 3 7 2 16 -1 19 -3 4 -6 -2 -5 -13z"/>
<path d="M5843 7934 c-32 -14 -5 -22 99 -26 69 -4 114 -10 116 -17 4 -11 62
-16 62 -6 0 3 -10 15 -21 26 -19 19 -35 22 -133 25 -61 2 -117 1 -123 -2z"/>
<path d="M6477 7933 c-54 -3 -84 -9 -97 -21 -30 -25 -24 -32 25 -32 25 0 45 5
45 10 0 6 24 10 53 10 77 0 127 11 127 26 0 10 -11 13 -37 12 -21 -1 -73 -4
-116 -5z"/>
<path d="M6010 7769 c0 -18 27 -39 59 -45 17 -4 31 -10 31 -15 0 -5 18 -9 40
-9 22 0 40 5 40 10 0 6 14 10 30 10 20 0 30 -5 30 -15 0 -8 -5 -15 -11 -15
-20 0 -39 -29 -39 -59 0 -17 4 -31 9 -31 5 0 13 -40 17 -90 3 -49 10 -90 15
-90 4 0 10 -8 12 -17 4 -17 5 -17 6 0 0 9 6 17 11 17 6 0 10 28 10 65 0 37 -4
65 -10 65 -5 0 -10 7 -10 15 0 8 4 15 9 15 5 0 11 29 13 65 2 35 7 67 10 71 4
3 45 9 92 11 47 3 86 9 86 14 0 4 14 10 30 14 17 4 30 11 30 16 0 13 -68 11
-72 -2 -6 -17 -410 -18 -415 -1 -6 15 -23 16 -23 1z"/>
<path d="M11333 6954 c-15 -16 -17 -34 -4 -34 10 0 26 39 19 45 -1 2 -9 -3
-15 -11z"/>
<path d="M6880 7500 c0 -11 5 -20 10 -20 6 0 10 9 10 20 0 11 -4 20 -10 20 -5
0 -10 -9 -10 -20z"/>
<path d="M6840 7476 c0 -8 -7 -16 -15 -20 -8 -3 -15 -16 -15 -30 0 -15 -7 -26
-17 -28 -10 -3 5 -4 32 -4 l50 1 -2 35 c-1 19 -2 41 -2 48 -1 17 -31 15 -31
-2z"/>
<path d="M6640 7345 c0 -8 5 -15 10 -15 6 0 10 7 10 15 0 8 -4 15 -10 15 -5 0
-10 -7 -10 -15z"/>
<path d="M6610 7321 c0 -5 5 -11 11 -13 6 -2 12 -23 13 -46 1 -49 26 -60 26
-12 0 17 -4 30 -9 30 -5 0 -12 11 -15 25 -6 24 -26 36 -26 16z"/>
<path d="M5950 7255 c0 -9 9 -15 25 -15 16 0 25 6 25 15 0 9 -9 15 -25 15 -16
0 -25 -6 -25 -15z"/>
<path d="M5898 7213 c7 -3 16 -2 19 1 4 3 -2 6 -13 5 -11 0 -14 -3 -6 -6z"/>
<path d="M5940 6875 c0 -8 -4 -15 -10 -15 -5 0 -10 -7 -10 -15 0 -8 7 -15 15
-15 8 0 15 7 15 15 0 8 5 15 10 15 15 0 12 17 -5 24 -9 3 -15 0 -15 -9z"/>
<path d="M6000 6875 c0 -8 7 -15 15 -15 8 0 15 7 15 15 0 8 -7 15 -15 15 -8 0
-15 -7 -15 -15z"/>
<path d="M5977 6810 c3 -13 14 -20 29 -20 17 0 24 6 24 20 0 15 -7 20 -29 20
-24 0 -28 -3 -24 -20z"/>
<path d="M6548 6793 c7 -3 16 -2 19 1 4 3 -2 6 -13 5 -11 0 -14 -3 -6 -6z"/>
<path d="M6458 6733 c7 -3 16 -2 19 1 4 3 -2 6 -13 5 -11 0 -14 -3 -6 -6z"/>
<path d="M11460 4620 c0 -6 -6 -17 -12 -24 -17 -16 -12 -149 5 -143 7 2 12 21
13 41 1 37 15 56 42 56 7 0 19 6 26 13 11 10 11 15 0 25 -7 7 -20 12 -28 12
-8 0 -22 7 -30 16 -10 9 -16 11 -16 4z"/>
<path d="M11520 4415 c0 -57 3 -75 14 -75 9 0 16 18 20 53 8 58 2 83 -20 91
-11 4 -14 -9 -14 -69z"/>
<path d="M11435 4248 c0 -88 -3 -122 -12 -125 -22 -8 -14 -23 11 -23 23 0 24
2 28 101 5 119 0 169 -16 169 -8 0 -11 -37 -11 -122z"/>
<path d="M11500 4200 c0 -43 14 -54 24 -17 10 37 7 57 -9 57 -11 0 -15 -11
-15 -40z"/>
<path d="M11437 3951 c-6 -81 0 -151 14 -151 14 0 21 60 14 121 -6 50 -5 59 9
59 9 0 16 2 16 5 0 6 -38 45 -44 45 -1 0 -6 -35 -9 -79z"/>
<path d="M11530 3996 c0 -9 7 -16 16 -16 9 0 14 5 12 12 -6 18 -28 21 -28 4z"/>
<path d="M12113 3013 c-15 -5 -18 -63 -3 -63 6 0 10 -52 11 -132 1 -73 3 -125
6 -115 2 9 9 17 14 17 5 0 9 20 9 45 0 25 -4 45 -10 45 -5 0 -10 11 -10 25 0
14 5 25 10 25 6 0 10 7 10 15 0 8 -4 15 -10 15 -5 0 -10 14 -10 30 0 17 5 30
10 30 6 0 10 9 10 20 0 11 -4 20 -9 20 -5 0 -11 6 -13 13 -2 8 -9 12 -15 10z"/>
<path d="M12190 2945 c0 -25 5 -45 10 -45 15 0 13 -117 -2 -123 -8 -3 -6 -6 5
-6 11 -1 17 6 17 19 0 11 4 20 9 20 5 0 11 34 13 75 2 55 0 75 -9 75 -7 0 -13
7 -13 15 0 8 -7 15 -15 15 -11 0 -15 -12 -15 -45z"/>
<path d="M12190 2731 c0 -5 7 -11 15 -15 9 -3 15 0 15 9 0 8 -7 15 -15 15 -8
0 -15 -4 -15 -9z"/>
<path d="M11552 11153 c-2 -1114 -5 -1408 -14 -1415 -10 -6 -10 -8 0 -8 9 0
12 -30 12 -115 0 -70 -4 -115 -10 -115 -5 0 -10 -7 -10 -15 0 -8 5 -15 10 -15
6 0 10 -48 10 -124 0 -97 3 -128 15 -140 17 -17 20 -46 5 -46 -20 0 -9 -18 15
-24 14 -4 25 -11 25 -16 0 -6 171 -10 475 -10 l475 0 0 1725 0 1725 -503 0
-504 0 -1 -1407z m59 1300 c1 -27 2 -195 3 -375 1 -256 -2 -328 -11 -328 -16
0 -14 -35 -16 392 -2 281 1 358 11 358 8 0 13 -17 13 -47z m3 -873 c8 -49 -4
-230 -15 -230 -4 0 -10 -12 -12 -27 -3 -16 -2 19 1 77 3 58 9 107 13 108 12 5
11 52 -1 52 -5 0 -10 14 -10 30 0 44 16 37 24 -10z m-14 -370 c4 -3 10 -132
12 -287 4 -221 3 -283 -7 -283 -9 0 -14 36 -18 128 -7 166 -7 481 0 462 3 -8
9 -17 13 -20z m15 -1047 c-4 -164 -11 -300 -15 -303 -4 -3 -9 -11 -11 -19 -3
-7 -4 62 -2 155 1 93 2 235 3 317 0 128 2 147 16 147 14 0 15 -29 9 -297z m-4
-635 c1 -68 3 -158 3 -201 2 -65 0 -77 -13 -75 -14 3 -16 26 -16 148 -1 171 5
250 16 250 5 0 10 -55 10 -122z"/>
<path d="M11520 9125 c0 -8 7 -15 15 -15 8 0 15 7 15 15 0 8 -7 15 -15 15 -8
0 -15 -7 -15 -15z"/>
<path d="M11851 9030 c-1 -24 12 -38 42 -45 15 -4 27 -11 27 -16 0 -5 18 -12
40 -15 31 -5 42 -12 46 -30 4 -14 16 -27 30 -30 13 -3 24 -10 24 -15 0 -16 21
-9 43 15 12 13 33 27 46 31 13 4 34 17 45 30 12 12 33 25 49 29 15 3 27 11 27
16 0 6 7 10 15 10 8 0 15 7 15 15 0 8 -4 15 -10 15 -5 0 -10 -4 -10 -10 0 -5
-7 -10 -15 -10 -8 0 -15 5 -15 10 0 13 -27 13 -32 0 -5 -16 -198 -15 -209 1
-6 10 -9 11 -9 2 0 -7 -7 -13 -15 -13 -8 0 -15 5 -15 10 0 6 -13 10 -30 10
-16 0 -30 -4 -30 -10 0 -15 -47 -12 -53 3 -4 8 -6 7 -6 -3z"/>
<path d="M12474 9027 c-14 -16 3 -33 40 -43 14 -3 26 -10 26 -15 0 -5 5 -9 10
-9 6 0 10 18 10 40 0 40 0 40 -37 40 -21 -1 -43 -6 -49 -13z"/>
<path d="M12328 8983 c-10 -2 -18 -11 -18 -18 0 -21 -29 -45 -55 -45 -21 0
-95 -59 -95 -75 0 -10 49 -4 52 6 2 7 62 11 176 12 139 1 172 3 172 15 0 21
-22 38 -58 45 -19 4 -45 20 -60 37 -26 30 -62 37 -114 23z m75 -60 c-13 -2
-33 -2 -45 0 -13 2 -3 4 22 4 25 0 35 -2 23 -4z"/>
<path d="M12551 5824 c0 -11 3 -14 6 -6 3 7 2 16 -1 19 -3 4 -6 -2 -5 -13z"/>
<path d="M12552 5640 c0 -14 2 -19 5 -12 2 6 2 18 0 25 -3 6 -5 1 -5 -13z"/>
<path d="M12271 4918 c-1 -85 -5 -138 -11 -138 -5 0 -10 -11 -10 -25 0 -16 6
-25 15 -25 8 0 15 -7 15 -15 0 -8 5 -15 10 -15 6 0 10 29 10 68 0 37 3 91 6
120 6 44 4 52 -10 52 -9 0 -16 7 -16 15 0 8 5 15 10 15 6 0 10 11 10 25 0 14
-4 25 -9 25 -5 0 -12 8 -14 18 -3 9 -5 -45 -6 -120z"/>
<path d="M12353 4993 c-15 -5 -18 -53 -3 -53 16 0 13 -207 -2 -213 -10 -4 -10
-6 0 -6 6 -1 12 -13 12 -27 0 -23 2 -24 15 -10 18 17 22 186 5 186 -5 0 -10
16 -10 35 0 19 5 35 10 35 6 0 10 11 10 24 0 25 -15 36 -37 29z"/>
<path d="M12520 4845 c0 -90 4 -145 10 -145 6 0 10 55 10 145 0 90 -4 145 -10
145 -6 0 -10 -55 -10 -145z"/>
<path d="M12443 4963 c-10 -4 -13 -42 -13 -149 0 -121 2 -144 15 -144 13 0 15
22 15 135 0 83 4 135 10 135 14 0 12 17 -2 22 -7 3 -19 3 -25 1z"/>
<path d="M12190 4685 c0 -8 5 -15 10 -15 6 0 10 -20 10 -45 0 -25 -5 -45 -11
-45 -6 0 -3 -7 5 -16 9 -8 16 -29 16 -45 0 -17 7 -37 15 -45 13 -14 15 -10 15
30 0 53 17 62 23 14 l4 -33 1 33 c1 17 7 32 12 32 6 0 10 11 10 25 0 20 -5 25
-27 26 -16 1 -34 1 -40 0 -8 -1 -13 10 -13 28 0 16 6 32 13 34 10 4 10 6 0 6
-7 1 -13 8 -13 16 0 8 -7 15 -15 15 -8 0 -15 -7 -15 -15z"/>
<path d="M12310 4591 c0 -5 5 -11 12 -13 6 -2 13 -30 16 -61 7 -91 32 -69 32
29 0 53 0 54 -30 54 -16 0 -30 -4 -30 -9z"/>
<path d="M12400 4585 c0 -8 5 -15 10 -15 6 0 10 -29 10 -67 0 -142 12 -263 27
-263 10 0 13 26 13 119 0 65 -3 146 -6 180 -6 56 -9 61 -30 61 -15 0 -24 -6
-24 -15z"/>
<path d="M12490 4555 c0 -25 5 -45 10 -45 6 0 10 -46 10 -117 0 -112 9 -157
27 -139 4 4 7 78 5 163 -2 115 -7 159 -17 169 -24 25 -35 15 -35 -31z"/>
<path d="M12272 4353 c2 -67 7 -108 14 -110 14 -5 23 84 16 162 -3 39 -9 55
-19 55 -11 0 -13 -20 -11 -107z"/>
<path d="M12234 4436 c-18 -19 -24 -45 -17 -76 7 -40 21 -38 28 3 9 47 3 88
-11 73z"/>
<path d="M12340 4410 c0 -11 5 -20 10 -20 6 0 10 -18 10 -40 0 -22 -4 -40 -10
-40 -15 0 -12 -57 3 -62 30 -12 37 4 37 78 0 43 -4 74 -10 74 -5 0 -10 7 -10
15 0 8 -7 15 -15 15 -8 0 -15 -9 -15 -20z"/>
<path d="M11980 4230 c0 -5 -7 -10 -15 -10 -13 0 -15 -22 -15 -134 0 -110 3
-135 15 -140 13 -5 15 14 15 134 l0 140 25 0 24 0 3 -152 c2 -110 6 -152 16
-156 9 -3 12 34 12 162 l0 166 -40 0 c-22 0 -40 -4 -40 -10z"/>
<path d="M12120 4215 c0 -14 -4 -25 -10 -25 -6 0 -10 -47 -10 -120 0 -73 4
-120 10 -120 6 0 10 -7 10 -15 0 -8 7 -15 15 -15 15 0 18 21 18 135 0 155 -3
185 -18 185 -9 0 -15 -9 -15 -25z"/>
<path d="M12210 4205 c0 -8 7 -15 15 -15 8 0 15 7 15 15 0 8 -7 15 -15 15 -8
0 -15 -7 -15 -15z"/>
<path d="M12340 4041 c0 -94 4 -151 10 -151 6 0 10 7 10 15 0 8 7 15 15 15 12
0 15 18 15 105 0 58 -4 105 -9 105 -5 0 -11 12 -13 27 -2 14 -9 28 -15 31 -10
3 -13 -31 -13 -147z"/>
<path d="M12280 4170 c0 -5 5 -10 10 -10 6 0 10 5 10 10 0 6 -4 10 -10 10 -5
0 -10 -4 -10 -10z"/>
<path d="M12210 4140 c0 -11 -4 -20 -10 -20 -5 0 -10 -11 -10 -25 0 -14 5 -25
10 -25 6 0 10 -20 10 -45 0 -32 4 -45 14 -45 11 0 15 18 18 74 2 41 2 81 0 90
-5 23 -32 20 -32 -4z"/>
<path d="M12270 4051 c0 -60 4 -102 11 -106 18 -12 21 1 22 87 2 68 -1 88 -15
102 -17 17 -18 13 -18 -83z"/>
<path d="M11976 3822 c-7 -11 5 -92 14 -92 11 0 20 53 13 79 -5 21 -18 28 -27
13z"/>
<path d="M12234 3822 c-6 -4 -14 -17 -18 -29 -6 -19 -4 -23 13 -23 17 0 21 6
21 30 0 33 0 33 -16 22z"/>
<path d="M12190 3750 c0 -5 5 -10 10 -10 6 0 10 5 10 10 0 6 -4 10 -10 10 -5
0 -10 -4 -10 -10z"/>
<path d="M11349 2998 c-3 -36 4 -94 11 -98 5 -3 11 -35 13 -70 2 -46 4 -34 5
42 1 58 -1 113 -4 122 -7 19 -24 21 -25 4z"/>
<path d="M11465 2691 c-7 -117 -2 -181 15 -181 5 0 11 -13 15 -30 4 -16 11
-30 16 -30 5 0 9 -47 9 -105 0 -63 -4 -105 -10 -105 -5 0 -10 -7 -10 -15 0 -8
7 -15 15 -15 8 0 15 6 15 14 0 8 6 17 13 19 9 4 8 8 -3 16 -10 7 -11 11 -2 11
7 0 12 15 12 40 0 22 -4 40 -10 40 -6 0 -10 37 -10 91 0 82 -2 91 -20 96 -19
5 -19 11 -13 139 5 117 4 134 -9 134 -13 0 -17 -21 -23 -119z"/>
<path d="M11346 2742 c-8 -13 5 -52 18 -52 6 0 4 -5 -4 -11 -11 -8 -12 -12 -2
-16 19 -7 17 -123 -3 -123 -13 0 -15 -25 -15 -165 0 -103 -4 -165 -10 -165 -5
0 -10 -9 -10 -20 0 -11 7 -20 15 -20 8 0 15 9 15 19 0 11 5 21 11 23 17 6 19
530 2 535 -6 2 -14 0 -17 -5z"/>
<path d="M160 2551 c0 -5 14 -11 30 -13 20 -3 30 0 30 9 0 8 -12 13 -30 13
-16 0 -30 -4 -30 -9z"/>
<path d="M263 2533 c9 -2 23 -2 30 0 6 3 -1 5 -18 5 -16 0 -22 -2 -12 -5z"/>
<path d="M223 2503 c20 -5 22 -19 5 -26 -7 -3 -1 -6 15 -6 21 -1 27 4 27 19 0
16 -6 20 -32 19 -18 -1 -25 -3 -15 -6z"/>
<path d="M11437 2473 c-4 -3 -7 -64 -7 -135 0 -79 -4 -128 -10 -128 -5 0 -10
-9 -10 -20 0 -11 7 -20 15 -20 8 0 15 9 15 20 0 11 4 20 8 20 11 0 23 204 15
243 -5 27 -13 33 -26 20z"/>
<path d="M10918 2113 c17 -2 47 -2 65 0 17 2 3 4 -33 4 -36 0 -50 -2 -32 -4z"/>
<path d="M11068 2113 c12 -2 32 -2 45 0 12 2 2 4 -23 4 -25 0 -35 -2 -22 -4z"/>
<path d="M11198 2113 c7 -3 16 -2 19 1 4 3 -2 6 -13 5 -11 0 -14 -3 -6 -6z"/>
<path d="M11353 2113 c9 -2 25 -2 35 0 9 3 1 5 -18 5 -19 0 -27 -2 -17 -5z"/>
<path d="M10020 1800 c0 -5 7 -10 15 -10 8 0 15 5 15 10 0 6 -7 10 -15 10 -8
0 -15 -4 -15 -10z"/>
<path d="M10170 1800 c0 -5 7 -10 15 -10 8 0 15 5 15 10 0 6 -7 10 -15 10 -8
0 -15 -4 -15 -10z"/>
<path d="M11110 1680 c0 -5 7 -10 15 -10 8 0 15 5 15 10 0 6 -7 10 -15 10 -8
0 -15 -4 -15 -10z"/>
<path d="M11200 1680 c0 -5 5 -10 10 -10 6 0 10 5 10 10 0 6 -4 10 -10 10 -5
0 -10 -4 -10 -10z"/>
<path d="M11320 1674 c0 -11 8 -14 27 -12 39 4 42 28 4 28 -21 0 -31 -5 -31
-16z"/>
<path d="M12426 1585 c-3 -9 0 -15 9 -15 8 0 15 7 15 15 0 8 -4 15 -9 15 -5 0
-11 -7 -15 -15z"/>
<path d="M12519 1488 c-1 -2 -3 -15 -5 -30 -2 -19 2 -28 12 -28 8 0 14 6 14
14 0 8 6 17 13 19 9 4 8 8 -3 16 -14 10 -29 14 -31 9z"/>
<path d="M12360 1467 c0 -9 -6 -18 -12 -20 -27 -11 14 -24 68 -22 52 1 82 13
57 22 -7 3 -13 11 -13 19 0 8 -9 14 -20 14 -11 0 -20 -7 -20 -15 0 -20 -24
-19 -44 1 -14 13 -16 13 -16 1z"/>
<path d="M11958 1363 c7 -3 16 -2 19 1 4 3 -2 6 -13 5 -11 0 -14 -3 -6 -6z"/>
</g>
</svg>
